<?xml version="1.0" encoding="utf-8"?>
<!-- Generator: Adobe Illustrator 28.2.0, SVG Export Plug-In . SVG Version: 6.00 Build 0)  -->
<svg version="1.1" xmlns="http://www.w3.org/2000/svg" xmlns:xlink="http://www.w3.org/1999/xlink" x="0px" y="0px"
	 viewBox="0 0 360 468" style="enable-background:new 0 0 360 468;" xml:space="preserve">
<style type="text/css">
	.Through_x0020_Cut{fill:none;stroke:#2E3192;stroke-width:0.5;stroke-miterlimit:10;}
	.st0{fill:#F9F9FA;}
	.st1{fill:#A7A9AC;}
	.st2{fill:none;stroke:#A7A9AC;stroke-width:0.25;stroke-miterlimit:10;}
	.st3{fill:#FFFFFF;}
	.st4{font-family:'GilbertBold';}
	.st5{font-size:15.5001px;}
	.st6{display:none;}
	.st7{display:inline;}
	.st8{fill:#231F20;}
	.st9{fill:none;stroke:#000000;stroke-width:0.4933;stroke-miterlimit:10;}
	.st10{fill:none;stroke:#2E3192;stroke-width:0.5;stroke-miterlimit:10;}
	.st11{fill:#E6E7E8;}
	.st12{fill:none;stroke:#000000;stroke-width:0.7235;stroke-miterlimit:10;}
	.st13{fill:none;stroke:#000000;stroke-width:0.8;stroke-miterlimit:10;}
	.st14{fill:#E9F7FE;}
	.st15{fill:#E6E7E8;stroke:#000000;stroke-width:0.8;}
	.st16{fill:none;stroke:#44C8F5;stroke-width:0.8;stroke-miterlimit:10;}
	.st17{fill-rule:evenodd;clip-rule:evenodd;fill:#231F20;}
	.st18{fill:none;stroke:#000000;stroke-width:0.2222;stroke-miterlimit:10;}
</style>
<g id="Instructions">
	<g id="Rim_text_guide">
		<path class="st0" d="M180,117.9c-22,0-39.9,17.9-39.9,39.9c0,22,17.9,39.9,39.9,39.9c22,0,39.9-17.9,39.9-39.9
			C219.9,135.8,202,117.9,180,117.9z M180,195c-20.5,0-37.1-16.7-37.1-37.1c0-20.5,16.7-37.1,37.1-37.1c20.5,0,37.1,16.7,37.1,37.1
			C217.1,178.3,200.5,195,180,195z"/>
		<path class="st1" d="M152.3,183.7c0,0.1,0.1,0.1,0.1,0.2c0,0.1,0,0.1,0,0.1c0,0,0,0.1,0,0.1c0,0-0.1,0.1-0.1,0.1
			c0,0-0.1,0.1-0.1,0.1s-0.1,0-0.1,0c0,0-0.1,0-0.1,0c-0.1,0-0.1-0.1-0.1-0.1l-0.2-0.2l-0.3,0.3l-0.2-0.2l0.9-0.8L152.3,183.7z
			 M151.8,184C151.8,184,151.9,184,151.8,184c0.1,0.1,0.1,0.1,0.1,0.1c0,0,0,0,0.1,0c0,0,0.1,0,0.1,0c0,0,0,0,0.1-0.1c0,0,0,0,0-0.1
			c0,0,0,0,0-0.1c0,0,0,0-0.1-0.1l-0.1-0.1l-0.3,0.2L151.8,184z M152.8,184.3l-0.7,0.7l0.4,0.4l-0.2,0.1l-0.6-0.6l0.8-0.8
			L152.8,184.3z M153.8,185.2l-0.5,1.1l-0.2-0.2l0.1-0.2l-0.3-0.3l-0.2,0.1l-0.2-0.2l1.1-0.5L153.8,185.2z M153.3,185.7l0.2-0.4l0,0
			l-0.4,0.2L153.3,185.7z M154.5,186.3C154.5,186.3,154.5,186.2,154.5,186.3c0-0.1,0-0.1,0-0.2c0,0,0-0.1-0.1-0.1
			c0,0-0.1-0.1-0.1-0.1c0,0-0.1,0-0.1,0c0,0-0.1,0-0.1,0.1c0,0-0.1,0.1-0.1,0.1c0,0-0.1,0.1-0.1,0.1c0,0,0,0.1,0,0.1
			c0,0,0,0.1,0,0.1c0,0,0,0.1,0.1,0.1c0.1,0.1,0.1,0.1,0.2,0.1c0.1,0,0.1,0,0.2-0.1l0.2,0.2c-0.1,0-0.1,0.1-0.2,0.1
			c-0.1,0-0.1,0-0.2,0c-0.1,0-0.1,0-0.2,0c-0.1,0-0.1-0.1-0.2-0.1c-0.1-0.1-0.1-0.1-0.1-0.2c0-0.1,0-0.1,0-0.2c0-0.1,0-0.1,0-0.2
			c0-0.1,0.1-0.1,0.1-0.2c0.1-0.1,0.1-0.1,0.2-0.2c0.1,0,0.1-0.1,0.2-0.1c0.1,0,0.1,0,0.2,0c0.1,0,0.1,0.1,0.2,0.1
			c0,0,0.1,0.1,0.1,0.1c0,0.1,0,0.1,0.1,0.2c0,0.1,0,0.1,0,0.2c0,0.1,0,0.1-0.1,0.2L154.5,186.3
			C154.5,186.3,154.5,186.3,154.5,186.3z M155.7,186.9l-0.1,0.2l-0.5-0.4l-0.2,0.2l0.4,0.4l-0.1,0.2l-0.4-0.4l-0.2,0.2l0.5,0.4
			l-0.1,0.2l-0.7-0.6l0.8-0.9L155.7,186.9z M156,187.5l0.1-0.2l0.7,0.6l-0.1,0.2l-0.3-0.2l-0.6,0.7l-0.2-0.2l0.6-0.7L156,187.5z
			 M157.7,188.5l-0.1,0.2l-0.5-0.4l-0.1,0.2l0.4,0.3l-0.1,0.2l-0.4-0.3l-0.2,0.2l0.5,0.4l-0.1,0.2l-0.7-0.5l0.7-0.9L157.7,188.5z
			 M157.8,188.6l0.2,0.2l0,0.4l0.4-0.2l0.2,0.2l-0.6,0.2l0,0.7l-0.2-0.2l0-0.5l-0.4,0.2l-0.2-0.2l0.7-0.3L157.8,188.6z M158.6,189.4
			l0.1-0.2l0.8,0.5l-0.1,0.2l-0.3-0.2l-0.5,0.8l-0.2-0.1l0.5-0.8L158.6,189.4z M160.3,190.2l-0.6,1l-0.2-0.1l0.6-1L160.3,190.2z
			 M160.7,190.5l0,0.9l0,0l0.4-0.7l0.2,0.1l-0.6,1l-0.2-0.1l0-0.9l0,0l-0.4,0.7l-0.2-0.1l0.6-1L160.7,190.5z M161.8,191.3l0.1-0.2
			l0.8,0.4l-0.1,0.2l-0.3-0.2l-0.4,0.8l-0.2-0.1l0.4-0.8L161.8,191.3z M163.1,191.8l-0.2,0.4l0.4,0.2l0.2-0.4l0.2,0.1l-0.5,1
			L163,193l0.2-0.4l-0.4-0.2l-0.2,0.4l-0.2-0.1l0.5-1L163.1,191.8z M164.2,192.3l-0.5,1l-0.2-0.1l0.5-1.1L164.2,192.3z M164.3,193.3
			C164.3,193.3,164.3,193.4,164.3,193.3c0,0.1,0.1,0.1,0.1,0.1c0,0,0.1,0,0.1,0.1c0,0,0,0,0.1,0s0.1,0,0.1,0c0,0,0,0,0.1,0
			c0,0,0,0,0-0.1c0,0,0-0.1,0-0.1c0,0,0-0.1-0.1-0.1c0,0-0.1-0.1-0.1-0.1c0,0-0.1-0.1-0.1-0.1c0,0-0.1-0.1-0.1-0.1
			c0,0-0.1-0.1-0.1-0.1c0,0,0-0.1,0-0.1c0,0,0-0.1,0-0.1c0-0.1,0.1-0.1,0.1-0.1s0.1-0.1,0.1-0.1c0,0,0.1,0,0.2,0c0.1,0,0.1,0,0.2,0
			c0.1,0,0.1,0.1,0.2,0.1c0,0,0.1,0.1,0.1,0.1c0,0,0,0.1,0,0.1c0,0.1,0,0.1,0,0.2l-0.2-0.1c0,0,0-0.1,0-0.1c0,0,0,0,0-0.1
			c0,0,0,0-0.1-0.1s0,0-0.1,0c0,0,0,0-0.1,0c0,0,0,0-0.1,0c0,0,0,0-0.1,0c0,0,0,0,0,0c0,0,0,0,0,0.1c0,0,0,0,0,0.1c0,0,0,0,0.1,0.1
			c0,0,0.1,0.1,0.1,0.1c0,0,0,0,0.1,0.1c0,0,0.1,0.1,0.1,0.1c0,0,0,0.1,0,0.1c0,0,0,0.1,0,0.2c0,0-0.1,0.1-0.1,0.1
			c0,0-0.1,0.1-0.1,0.1c-0.1,0-0.1,0-0.2,0c-0.1,0-0.1,0-0.2-0.1c-0.1,0-0.1-0.1-0.2-0.1c0,0-0.1-0.1-0.1-0.1c0,0,0-0.1,0-0.2
			c0-0.1,0-0.1,0-0.2L164.3,193.3C164.3,193.2,164.2,193.3,164.3,193.3z M166.4,193.2l0,1.2l-0.2-0.1l0-0.3l-0.4-0.2l-0.2,0.2
			l-0.2-0.1l0.8-0.9L166.4,193.2z M166.1,193.9l0-0.4l0,0l-0.3,0.3L166.1,193.9z M167.5,193.6c0,0,0.1,0,0.1,0.1
			c0,0,0.1,0.1,0.1,0.1c0,0,0,0.1,0,0.1c0,0,0,0.1,0,0.1c0,0.1-0.1,0.1-0.1,0.2c0,0-0.1,0.1-0.2,0.1l0,0c0,0,0,0,0.1,0.1
			c0,0,0,0,0,0.1c0,0,0,0.1,0,0.1c0,0,0,0.1,0,0.1c0,0,0,0,0,0.1c0,0,0,0,0,0.1c0,0,0,0.1,0,0.1c0,0,0,0,0,0.1l-0.2-0.1
			c0,0,0-0.1,0-0.1c0,0,0-0.1,0-0.1c0-0.1,0-0.1,0-0.1c0,0-0.1-0.1-0.1-0.1l-0.2-0.1l-0.2,0.4l-0.2-0.1l0.4-1.1L167.5,193.6z
			 M167.2,194.1c0.1,0,0.1,0,0.1,0c0,0,0.1,0,0.1-0.1c0-0.1,0-0.1,0-0.1c0,0-0.1-0.1-0.1-0.1l-0.3-0.1L167,194L167.2,194.1z
			 M168.8,194.1l-0.1,0.2l-0.6-0.2l-0.1,0.2l0.5,0.2l-0.1,0.2l-0.5-0.2l-0.1,0.3l0.6,0.2l-0.1,0.2l-0.8-0.3l0.4-1.1L168.8,194.1z
			 M169.6,194.3l0.1,1.2l-0.3-0.1l0-0.3l-0.4-0.1l-0.2,0.2l-0.2-0.1l0.7-1L169.6,194.3z M169.4,195l0-0.4l0,0l-0.3,0.4L169.4,195z
			 M171.2,194.7l0.1,1.2l-0.3-0.1l0-0.3l-0.4-0.1l-0.1,0.2l-0.2-0.1l0.7-1L171.2,194.7z M171,195.4l0-0.4l0,0l-0.2,0.4L171,195.4z
			 M171.9,194.9l0.3,0.9l0,0l0.2-0.8l0.2,0l-0.2,1.1l-0.2-0.1l-0.3-0.9l0,0l-0.2,0.8l-0.2,0l0.2-1.1L171.9,194.9z M173.4,195.2
			c0.1,0,0.1,0,0.2,0.1c0.1,0,0.1,0.1,0.1,0.1c0,0.1,0.1,0.1,0.1,0.2c0,0.1,0,0.2,0,0.3c0,0.1,0,0.2-0.1,0.2c0,0.1-0.1,0.1-0.1,0.2
			c-0.1,0-0.1,0.1-0.2,0.1c-0.1,0-0.1,0-0.2,0l-0.5-0.1l0.2-1.1L173.4,195.2z M173.2,196.1c0,0,0.1,0,0.1,0c0,0,0.1,0,0.1,0
			c0,0,0.1-0.1,0.1-0.1c0,0,0-0.1,0.1-0.2c0-0.1,0-0.1,0-0.2c0,0,0-0.1,0-0.1c0,0,0-0.1-0.1-0.1c0,0-0.1,0-0.2-0.1l-0.2,0l-0.1,0.7
			L173.2,196.1z M174.8,195.4l-0.2,1.1l-0.3,0l0.2-1.1L174.8,195.4z M175,195.7l0-0.2l0.9,0.1l0,0.2l-0.3,0l-0.1,0.9l-0.3,0l0.1-0.9
			L175,195.7z M177.3,196.8l-0.1-0.8l0,0l-0.2,0.8l-0.3,0l-0.2-1.2l0.3,0l0.1,0.8l0,0l0.3-0.8l0.2,0l0.1,0.8l0,0l0.2-0.8l0.2,0
			l-0.4,1.1L177.3,196.8z M178.4,195.7l-0.1,1.2l-0.3,0l0.1-1.2L178.4,195.7z M178.9,195.8l0,0.9l0.6,0l0,0.2l-0.8,0l0-1.2
			L178.9,195.8z M179.8,195.8l0,0.9l0.6,0l0,0.2l-0.8,0l0-1.2L179.8,195.8z M181.6,195.7c0.1,0,0.1,0,0.2,0c0.1,0,0.1,0,0.1,0.1
			c0,0,0.1,0.1,0.1,0.1c0,0,0,0.1,0,0.1c0,0,0,0.1,0,0.1c0,0,0,0.1-0.1,0.1c0,0-0.1,0.1-0.1,0.1c-0.1,0-0.1,0-0.2,0l-0.3,0l0,0.4
			l-0.3,0l0-1.2L181.6,195.7z M181.5,196.3C181.5,196.3,181.6,196.3,181.5,196.3c0.1,0,0.1,0,0.2,0c0,0,0,0,0-0.1c0,0,0-0.1,0-0.1
			s0-0.1,0-0.1c0,0,0,0-0.1-0.1c0,0,0,0-0.1,0c0,0-0.1,0-0.1,0l-0.2,0l0,0.3L181.5,196.3z M182.8,195.7c0.1,0,0.1,0,0.1,0
			c0,0,0.1,0,0.1,0.1c0,0,0.1,0.1,0.1,0.1c0,0,0,0.1,0,0.1c0,0.1,0,0.1,0,0.2s-0.1,0.1-0.1,0.1v0c0,0,0.1,0,0.1,0s0,0,0.1,0.1
			s0,0,0,0.1c0,0,0,0.1,0,0.1c0,0,0,0,0,0.1c0,0,0,0,0,0.1s0,0.1,0,0.1c0,0,0,0,0,0.1l-0.3,0c0,0,0-0.1,0-0.1c0-0.1,0-0.1,0-0.1
			c0-0.1,0-0.1-0.1-0.1c0,0-0.1,0-0.1,0l-0.3,0l0,0.5l-0.3,0l-0.1-1.2L182.8,195.7z M182.7,196.2c0.1,0,0.1,0,0.1,0c0,0,0-0.1,0-0.1
			c0-0.1,0-0.1-0.1-0.1s-0.1,0-0.1,0l-0.3,0l0,0.3L182.7,196.2z M183.6,195.6l0.1,1.2l-0.3,0l-0.1-1.2L183.6,195.6z M184.1,195.6
			l0.6,0.7h0l-0.1-0.8l0.2,0l0.1,1.2l-0.3,0l-0.6-0.7l0,0l0.1,0.8l-0.2,0l-0.1-1.2L184.1,195.6z M185,195.7l0-0.2l0.9-0.1l0,0.2
			l-0.3,0l0.1,0.9l-0.3,0l-0.1-0.9L185,195.7z M186.6,195.6c0-0.1,0-0.1,0.1-0.2c0-0.1,0.1-0.1,0.2-0.2c0.1,0,0.1-0.1,0.2-0.1
			c0.1,0,0.2,0,0.2,0c0.1,0,0.1,0,0.2,0.1c0.1,0,0.1,0.1,0.1,0.2c0,0.1,0.1,0.1,0.1,0.2c0,0.1,0,0.2,0,0.2c0,0.1,0,0.1-0.1,0.2
			c0,0.1-0.1,0.1-0.2,0.2c-0.1,0-0.1,0.1-0.2,0.1c-0.1,0-0.2,0-0.2,0c-0.1,0-0.1,0-0.2-0.1c-0.1,0-0.1-0.1-0.1-0.2s-0.1-0.1-0.1-0.2
			C186.6,195.7,186.6,195.6,186.6,195.6z M186.9,195.9c0,0,0,0.1,0.1,0.1s0.1,0.1,0.1,0.1c0,0,0.1,0,0.1,0c0.1,0,0.1,0,0.1-0.1
			c0,0,0.1-0.1,0.1-0.1c0,0,0-0.1,0-0.1c0,0,0-0.1,0-0.1c0-0.1,0-0.1,0-0.1c0,0,0-0.1-0.1-0.1s-0.1-0.1-0.1-0.1c0,0-0.1,0-0.1,0
			c-0.1,0-0.1,0-0.1,0.1c0,0-0.1,0.1-0.1,0.1c0,0,0,0.1,0,0.1c0,0,0,0.1,0,0.1C186.8,195.8,186.9,195.8,186.9,195.9z M188,194.9
			l0.6,0.7l0,0l-0.2-0.8l0.2-0.1l0.3,1.1l-0.2,0.1l-0.6-0.7l0,0l0.2,0.8l-0.2,0.1l-0.3-1.1L188,194.9z M189.4,194.8l-0.1-0.2
			l0.9-0.2l0.1,0.2l-0.3,0.1l0.2,0.9l-0.2,0.1l-0.2-0.9L189.4,194.8z M190.7,194.3l0.1,0.4l0.4-0.1l-0.1-0.4l0.2-0.1l0.3,1.1
			l-0.2,0.1l-0.1-0.5l-0.4,0.1l0.1,0.5l-0.2,0.1l-0.3-1.1L190.7,194.3z M192.4,193.7l0.1,0.2l-0.6,0.2l0.1,0.2l0.5-0.2l0.1,0.2
			l-0.5,0.2l0.1,0.3l0.6-0.2l0.1,0.2l-0.8,0.3l-0.4-1.1L192.4,193.7z M193.6,193.2c0,0,0.1,0,0.1,0c0,0,0.1,0,0.1,0
			c0,0,0.1,0,0.1,0.1c0,0,0.1,0.1,0.1,0.1c0,0.1,0,0.1,0,0.2c0,0.1,0,0.1-0.1,0.2l0,0c0,0,0.1,0,0.1,0c0,0,0,0,0.1,0
			c0,0,0,0,0.1,0.1c0,0,0,0.1,0,0.1c0,0,0,0,0,0.1c0,0,0,0,0,0.1c0,0,0,0,0,0.1c0,0,0,0,0,0l-0.2,0.1c0,0-0.1-0.1-0.1-0.1
			s0-0.1-0.1-0.1c0-0.1-0.1-0.1-0.1-0.1c0,0-0.1,0-0.1,0l-0.2,0.1l0.2,0.4l-0.2,0.1l-0.4-1.1L193.6,193.2z M193.7,193.8
			c0.1,0,0.1,0,0.1-0.1c0,0,0-0.1,0-0.1c0-0.1,0-0.1-0.1-0.1c0,0-0.1,0-0.1,0l-0.3,0.1l0.1,0.3L193.7,193.8z M194.4,192.9l0.4,1.1
			l-0.2,0.1l-0.4-1.1L194.4,192.9z M195,192.7l0.6,0.6l0,0l-0.1-0.8l0.3-0.1l0.5,1.1l-0.2,0.1l-0.3-0.8l0,0l0.1,0.9l-0.2,0.1
			l-0.6-0.6l0,0l0.3,0.7l-0.2,0.1l-0.5-1.1L195,192.7z M196.6,192.4c0-0.1,0-0.2,0-0.2c0-0.1,0.1-0.1,0.1-0.2c0-0.1,0.1-0.1,0.2-0.1
			c0.1,0,0.2-0.1,0.2-0.1c0.1,0,0.1,0,0.2,0c0.1,0,0.1,0.1,0.2,0.1c0.1,0.1,0.1,0.1,0.1,0.2c0,0.1,0.1,0.2,0.1,0.2
			c0,0.1,0,0.2,0,0.2c0,0.1-0.1,0.1-0.1,0.2c0,0.1-0.1,0.1-0.2,0.1c-0.1,0-0.2,0.1-0.2,0.1c-0.1,0-0.1,0-0.2,0
			c-0.1,0-0.1-0.1-0.2-0.1c-0.1-0.1-0.1-0.1-0.1-0.2C196.6,192.5,196.6,192.4,196.6,192.4z M196.9,192.6c0,0,0.1,0.1,0.1,0.1
			c0,0,0.1,0,0.1,0c0,0,0.1,0,0.1,0c0.1,0,0.1-0.1,0.1-0.1s0-0.1,0-0.1c0,0,0-0.1,0-0.1c0,0,0-0.1,0-0.1c0,0-0.1-0.1-0.1-0.1
			c0,0-0.1-0.1-0.1-0.1c0,0-0.1,0-0.1,0c0,0-0.1,0-0.1,0c-0.1,0-0.1,0.1-0.1,0.1c0,0,0,0.1,0,0.1c0,0,0,0.1,0,0.1c0,0,0,0.1,0.1,0.1
			C196.9,192.5,196.9,192.6,196.9,192.6z M198.3,191.1l0.1,0.2l-0.5,0.3l0.1,0.2l0.4-0.2l0.1,0.2l-0.4,0.2l0.2,0.4l-0.2,0.1l-0.5-1
			L198.3,191.1z M198.7,190.8l0.2-0.1l0.5,0.3l0-0.5l0.2-0.1l0,0.8l0.2,0.4l-0.2,0.1l-0.2-0.4L198.7,190.8z M200,190.5
			c0-0.1,0-0.2,0-0.2c0-0.1,0-0.1,0.1-0.2c0-0.1,0.1-0.1,0.2-0.2c0.1,0,0.2-0.1,0.2-0.1c0.1,0,0.1,0,0.2,0c0.1,0,0.1,0.1,0.2,0.1
			c0.1,0,0.1,0.1,0.2,0.2c0,0.1,0.1,0.1,0.1,0.2c0,0.1,0,0.1,0,0.2c0,0.1,0,0.1-0.1,0.2c0,0.1-0.1,0.1-0.2,0.2
			c-0.1,0-0.2,0.1-0.2,0.1c-0.1,0-0.1,0-0.2,0c-0.1,0-0.1-0.1-0.2-0.1c-0.1,0-0.1-0.1-0.2-0.2C200,190.6,200,190.6,200,190.5z
			 M200.4,190.7c0,0,0.1,0.1,0.1,0.1c0,0,0.1,0,0.1,0c0,0,0.1,0,0.1-0.1c0,0,0.1-0.1,0.1-0.1c0,0,0-0.1,0-0.1c0,0,0-0.1,0-0.1
			c0,0,0-0.1-0.1-0.1c0,0-0.1-0.1-0.1-0.1c0,0-0.1-0.1-0.1-0.1c0,0-0.1,0-0.1,0c0,0-0.1,0-0.1,0c0,0-0.1,0.1-0.1,0.1
			c0,0,0,0.1,0,0.1c0,0,0,0.1,0,0.1c0,0,0,0.1,0.1,0.1C200.3,190.6,200.3,190.7,200.4,190.7z M202.2,189.9c0,0.1-0.1,0.2-0.2,0.3
			c-0.1,0.1-0.3,0.1-0.4,0.1c-0.1,0-0.2-0.1-0.3-0.2l-0.4-0.6l0.2-0.1l0.4,0.6c0,0,0,0.1,0.1,0.1s0,0,0.1,0c0,0,0.1,0,0.1,0
			c0,0,0.1,0,0.1-0.1c0.1-0.1,0.1-0.1,0.1-0.2c0-0.1,0-0.1-0.1-0.2l-0.4-0.6l0.2-0.1l0.4,0.6C202.2,189.7,202.2,189.8,202.2,189.9z
			 M202.4,188.5c0,0,0.1-0.1,0.1-0.1c0,0,0.1,0,0.1,0c0,0,0.1,0,0.1,0c0,0,0.1,0.1,0.1,0.1c0,0.1,0.1,0.1,0.1,0.2c0,0.1,0,0.1,0,0.2
			l0,0c0,0,0.1,0,0.1,0c0,0,0.1,0,0.1,0c0,0,0,0,0.1,0c0,0,0,0,0.1,0.1c0,0,0,0,0,0.1c0,0,0,0,0,0.1c0,0,0,0,0.1,0.1c0,0,0,0,0.1,0
			l-0.2,0.1c0,0-0.1-0.1-0.1-0.1c0,0-0.1-0.1-0.1-0.1c0,0-0.1-0.1-0.1-0.1c0,0-0.1,0-0.1,0l-0.2,0.1l0.3,0.4l-0.2,0.1l-0.7-0.9
			L202.4,188.5z M202.6,188.9c0,0,0.1-0.1,0.1-0.1c0,0,0-0.1,0-0.1c0,0-0.1-0.1-0.1-0.1c0,0-0.1,0-0.1,0l-0.2,0.2l0.2,0.3
			L202.6,188.9z M203.6,187.5c0,0,0.1-0.1,0.1-0.1c0,0,0.1,0,0.1,0c0,0,0.1,0,0.1,0c0,0,0.1,0,0.1,0.1c0,0,0.1,0.1,0.1,0.1
			s0,0.1,0,0.1c0.1,0,0.1,0,0.2,0c0.1,0,0.1,0.1,0.2,0.1c0,0,0.1,0.1,0.1,0.1c0,0,0,0.1,0,0.1c0,0,0,0.1-0.1,0.1
			c0,0-0.1,0.1-0.1,0.1l-0.4,0.3l-0.7-0.9L203.6,187.5z M203.9,187.9C203.9,187.8,204,187.8,203.9,187.9c0.1-0.1,0.1-0.2,0-0.2
			c0,0,0,0-0.1,0c0,0,0,0-0.1,0c0,0,0,0-0.1,0c0,0,0,0-0.1,0l-0.2,0.1l0.2,0.2L203.9,187.9z M204.2,188.2
			C204.2,188.2,204.3,188.2,204.2,188.2c0.1-0.1,0.1-0.1,0.1-0.1c0,0,0,0,0-0.1c0,0,0,0,0-0.1c0,0-0.1-0.1-0.1-0.1
			c0,0-0.1,0-0.1,0.1l-0.2,0.2l0.2,0.2L204.2,188.2z M205.5,187.4c0,0.1-0.1,0.2-0.2,0.3c-0.1,0.1-0.2,0.2-0.4,0.1
			c-0.1,0-0.2-0.1-0.3-0.2l-0.5-0.5l0.2-0.2l0.5,0.5c0,0,0,0,0.1,0.1c0,0,0,0,0.1,0c0,0,0.1,0,0.1,0c0,0,0.1,0,0.1-0.1
			c0.1-0.1,0.1-0.1,0.1-0.2c0-0.1,0-0.1-0.1-0.2l-0.5-0.5l0.2-0.2l0.5,0.5C205.4,187.1,205.5,187.3,205.5,187.4z M205.1,186.5
			l-0.1-0.2l0.7-0.6l0.1,0.2l-0.3,0.2l0.6,0.7L206,187l-0.6-0.7L205.1,186.5z M205.9,185.8l-0.1-0.2l0.7-0.7l0.1,0.2l-0.3,0.2
			l0.7,0.7l-0.2,0.2l-0.7-0.7L205.9,185.8z M206.8,185.2c0-0.1-0.1-0.1-0.1-0.2s0-0.1,0-0.2c0-0.1,0.1-0.1,0.1-0.2
			c0.1-0.1,0.1-0.1,0.2-0.1c0.1,0,0.1,0,0.2,0s0.1,0,0.2,0.1c0.1,0,0.1,0.1,0.2,0.1c0.1,0.1,0.1,0.1,0.1,0.2c0,0.1,0.1,0.1,0.1,0.2
			c0,0.1,0,0.1,0,0.2c0,0.1-0.1,0.1-0.1,0.2c-0.1,0.1-0.1,0.1-0.2,0.1c-0.1,0-0.1,0-0.2,0c-0.1,0-0.1,0-0.2-0.1
			c-0.1,0-0.1-0.1-0.2-0.1C206.9,185.3,206.8,185.2,206.8,185.2z M207.2,185.3c0,0,0.1,0,0.1,0c0,0,0.1,0,0.1,0c0,0,0.1,0,0.1-0.1
			c0,0,0.1-0.1,0.1-0.1c0,0,0-0.1,0-0.1c0,0,0-0.1-0.1-0.1c0,0-0.1-0.1-0.1-0.1c0,0-0.1-0.1-0.1-0.1c0,0-0.1,0-0.1-0.1
			c0,0-0.1,0-0.1,0c0,0-0.1,0-0.1,0.1c0,0-0.1,0.1-0.1,0.1c0,0,0,0.1,0,0.1c0,0,0,0.1,0.1,0.1c0,0,0.1,0.1,0.1,0.1
			C207.1,185.2,207.2,185.3,207.2,185.3z M207.6,183.8l0.9,0.2l0,0l-0.6-0.5l0.2-0.2l0.8,0.8l-0.2,0.2l-0.9-0.2l0,0l0.6,0.5
			l-0.2,0.2l-0.8-0.8L207.6,183.8z M209.1,183.5l0.2,0.2l-0.2,0.2l-0.2-0.2L209.1,183.5z M150.9,131.7c0-0.1,0.1-0.1,0.1-0.1
			c0,0,0.1,0,0.1,0c0,0,0.1,0,0.1,0c0,0,0.1,0,0.1,0.1c0,0,0.1,0.1,0.1,0.1c0,0,0,0.1,0,0.1c0,0,0,0.1,0,0.1c0,0.1-0.1,0.1-0.1,0.2
			l-0.2,0.2l0.3,0.3l-0.2,0.2l-0.9-0.8L150.9,131.7z M151.2,132.1C151.3,132.1,151.3,132.1,151.2,132.1c0.1-0.1,0.1-0.1,0.1-0.1
			c0,0,0,0,0-0.1c0,0,0,0-0.1-0.1c0,0-0.1,0-0.1,0s0,0-0.1,0c0,0,0,0-0.1,0c0,0,0,0-0.1,0.1l-0.1,0.1l0.3,0.2L151.2,132.1z
			 M151.5,131.1l0.7,0.6l0.4-0.4l0.2,0.1l-0.6,0.6l-0.8-0.8L151.5,131.1z M152.4,130.1l1.1,0.5l-0.2,0.2l-0.2-0.1l-0.3,0.3l0.1,0.2
			l-0.2,0.2l-0.5-1.1L152.4,130.1z M152.9,130.6l-0.4-0.2l0,0l0.2,0.4L152.9,130.6z M153.6,129.4
			C153.6,129.4,153.6,129.3,153.6,129.4c-0.1,0-0.1,0-0.2,0c0,0-0.1,0-0.1,0.1c0,0-0.1,0.1-0.1,0.1c0,0,0,0.1,0,0.1c0,0,0,0.1,0,0.1
			c0,0,0.1,0.1,0.1,0.1c0,0,0.1,0.1,0.1,0.1c0,0,0.1,0,0.1,0.1s0.1,0,0.1,0s0.1,0,0.1-0.1c0.1-0.1,0.1-0.1,0.1-0.2
			c0-0.1,0-0.1-0.1-0.2l0.2-0.2c0,0.1,0.1,0.1,0.1,0.2c0,0.1,0,0.1,0,0.2c0,0.1,0,0.1,0,0.2c0,0.1-0.1,0.1-0.1,0.2
			c-0.1,0.1-0.1,0.1-0.2,0.1s-0.1,0-0.2,0c-0.1,0-0.1,0-0.2-0.1c-0.1,0-0.1-0.1-0.2-0.1c-0.1-0.1-0.1-0.1-0.1-0.2s0-0.1-0.1-0.2
			c0-0.1,0-0.1,0-0.2c0-0.1,0.1-0.1,0.1-0.2c0,0,0.1-0.1,0.2-0.1c0.1,0,0.1,0,0.2,0c0.1,0,0.1,0,0.2,0c0.1,0,0.1,0,0.2,0.1
			L153.6,129.4C153.7,129.4,153.6,129.4,153.6,129.4z M154.4,128.2l0.1,0.2l-0.5,0.4l0.2,0.2l0.4-0.4l0.1,0.1l-0.4,0.4l0.2,0.2
			l0.5-0.4l0.1,0.2l-0.7,0.6l-0.8-0.9L154.4,128.2z M155.1,127.9l-0.1-0.2l0.7-0.6l0.1,0.2l-0.3,0.2l0.6,0.7l-0.2,0.2l-0.6-0.7
			L155.1,127.9z M156.5,126.5l0.1,0.2l-0.5,0.4l0.2,0.2l0.4-0.3l0.1,0.2l-0.4,0.3l0.2,0.2l0.5-0.4l0.1,0.2l-0.7,0.5l-0.7-0.9
			L156.5,126.5z M156.7,126.4l0.2-0.2l0.4,0.2l0-0.4l0.2-0.2l0,0.7l0.7,0.3l-0.2,0.2l-0.4-0.2l0,0.5l-0.2,0.2l0-0.7L156.7,126.4z
			 M157.7,125.9l-0.1-0.2l0.8-0.5l0.1,0.2l-0.3,0.2l0.5,0.8l-0.2,0.1l-0.5-0.8L157.7,125.9z M159.2,124.7l0.6,1l-0.2,0.1l-0.6-1
			L159.2,124.7z M159.7,124.4l0.8,0.4l0,0l-0.4-0.7l0.2-0.1l0.6,1l-0.2,0.1l-0.8-0.4l0,0l0.4,0.7l-0.2,0.1l-0.6-1L159.7,124.4z
			 M161,123.8l-0.1-0.2l0.8-0.5l0.1,0.2l-0.3,0.2l0.5,0.8l-0.2,0.1l-0.5-0.8L161,123.8z M162.2,123l0.2,0.4l0.4-0.2l-0.2-0.4
			l0.2-0.1l0.5,1l-0.2,0.1l-0.2-0.4l-0.4,0.2l0.2,0.4l-0.2,0.1l-0.5-1L162.2,123z M163.3,122.4l0.5,1l-0.2,0.1l-0.5-1L163.3,122.4z
			 M164.1,123C164.1,123,164.2,123,164.1,123c0.1,0,0.1,0,0.2,0c0,0,0.1,0,0.1,0c0,0,0,0,0.1,0c0,0,0,0,0.1-0.1c0,0,0,0,0-0.1
			c0,0,0,0,0-0.1c0,0,0,0-0.1-0.1c0,0-0.1,0-0.1,0c0,0-0.1,0-0.1,0c0,0-0.1,0-0.1,0c0,0-0.1,0-0.1,0c0,0-0.1,0-0.1,0
			c0,0-0.1,0-0.1-0.1c0,0-0.1-0.1-0.1-0.1c0-0.1,0-0.1,0-0.2c0-0.1,0-0.1,0-0.1c0,0,0.1-0.1,0.1-0.1c0,0,0.1-0.1,0.1-0.1
			c0.1,0,0.1,0,0.2-0.1c0.1,0,0.1,0,0.2,0c0.1,0,0.1,0,0.1,0.1c0,0,0.1,0.1,0.1,0.1l-0.2,0.1c0,0,0-0.1-0.1-0.1s0,0-0.1,0s0,0-0.1,0
			c0,0-0.1,0-0.1,0c0,0,0,0-0.1,0c0,0,0,0,0,0c0,0,0,0,0,0.1c0,0,0,0,0,0.1c0,0,0,0,0,0c0,0,0,0,0.1,0c0,0,0.1,0,0.1,0
			c0,0,0.1,0,0.2,0c0,0,0.1,0,0.1,0s0.1,0,0.1,0c0,0,0.1,0,0.1,0.1s0.1,0.1,0.1,0.1c0,0,0,0.1,0,0.1c0,0,0,0.1,0,0.1
			c0,0-0.1,0.1-0.1,0.1c0,0-0.1,0.1-0.2,0.1c-0.1,0-0.1,0-0.2,0.1s-0.1,0-0.2,0c-0.1,0-0.1,0-0.2-0.1c0,0-0.1-0.1-0.1-0.2L164.1,123
			C164.1,123,164.1,123,164.1,123z M165.6,121.4l0.8,0.9l-0.2,0.1l-0.2-0.2l-0.4,0.2l0,0.3l-0.2,0.1l0-1.2L165.6,121.4z
			 M165.9,122.1l-0.3-0.3l0,0l0,0.5L165.9,122.1z M166.8,121c0,0,0.1,0,0.1,0c0,0,0.1,0,0.1,0c0,0,0.1,0,0.1,0.1c0,0,0,0.1,0.1,0.1
			c0,0.1,0,0.1,0,0.2c0,0.1,0,0.1-0.1,0.2l0,0c0,0,0.1,0,0.1,0c0,0,0,0,0.1,0c0,0,0,0,0.1,0.1c0,0,0,0.1,0,0.1c0,0,0,0,0,0.1
			c0,0,0,0,0,0.1c0,0,0,0,0,0.1c0,0,0,0,0,0l-0.2,0.1c0,0,0-0.1-0.1-0.1c0,0,0-0.1-0.1-0.1c0-0.1-0.1-0.1-0.1-0.1c0,0-0.1,0-0.1,0
			l-0.2,0.1l0.2,0.4l-0.2,0.1l-0.4-1.1L166.8,121z M166.9,121.5c0.1,0,0.1,0,0.1-0.1c0,0,0-0.1,0-0.1c0-0.1,0-0.1-0.1-0.1
			c0,0-0.1,0-0.1,0l-0.3,0.1l0.1,0.3L166.9,121.5z M168.2,120.5l0.1,0.2l-0.6,0.2l0.1,0.2l0.5-0.2l0.1,0.2l-0.5,0.2l0.1,0.3l0.6-0.2
			l0.1,0.2l-0.8,0.3l-0.4-1.1L168.2,120.5z M169,120.3l0.7,1l-0.3,0.1l-0.2-0.2l-0.4,0.1l0,0.3l-0.2,0.1l0.1-1.2L169,120.3z
			 M169.2,120.9l-0.3-0.4l0,0l0,0.5L169.2,120.9z M170.6,119.8l0.7,1l-0.3,0.1l-0.1-0.2l-0.4,0.1l0,0.3l-0.2,0.1l0.1-1.2
			L170.6,119.8z M170.8,120.5l-0.2-0.4l0,0l0,0.4L170.8,120.5z M171.5,119.6l0.6,0.7l0,0l-0.2-0.8l0.2-0.1l0.2,1.1l-0.2,0.1
			l-0.6-0.7l0,0l0.2,0.8l-0.2,0.1l-0.2-1.1L171.5,119.6z M173,119.3c0.1,0,0.1,0,0.2,0c0.1,0,0.1,0,0.2,0.1c0.1,0,0.1,0.1,0.1,0.2
			c0,0.1,0.1,0.1,0.1,0.2c0,0.1,0,0.2,0,0.2c0,0.1,0,0.1-0.1,0.2c0,0.1-0.1,0.1-0.1,0.1c-0.1,0-0.1,0.1-0.2,0.1l-0.5,0.1l-0.2-1.1
			L173,119.3z M173.1,120.2c0,0,0.1,0,0.1,0s0.1,0,0.1-0.1c0,0,0-0.1,0-0.1c0,0,0-0.1,0-0.2c0-0.1,0-0.1,0-0.2c0,0,0-0.1-0.1-0.1
			c0,0-0.1,0-0.1-0.1c0,0-0.1,0-0.2,0l-0.2,0l0.1,0.7L173.1,120.2z M174.5,119.1l0.2,1.1l-0.3,0l-0.2-1.1L174.5,119.1z M174.7,119.3
			l0-0.2l0.9-0.1l0,0.2l-0.3,0l0.1,0.9l-0.3,0l-0.1-0.9L174.7,119.3z M177.3,119.9l-0.3-0.8l0,0l-0.1,0.8l-0.3,0l-0.4-1.1l0.3,0
			l0.2,0.8l0,0l0.1-0.8l0.2,0l0.3,0.8l0,0l0.1-0.8l0.2,0l-0.2,1.2L177.3,119.9z M178.2,118.7l0.1,1.2l-0.3,0l-0.1-1.2L178.2,118.7z
			 M178.8,118.7l0,0.9l0.6,0l0,0.2l-0.8,0l0-1.2L178.8,118.7z M179.8,118.7l0,0.9l0.6,0l0,0.2l-0.8,0l0-1.2L179.8,118.7z
			 M181.6,118.7c0.1,0,0.1,0,0.2,0c0.1,0,0.1,0.1,0.1,0.1c0,0,0.1,0.1,0.1,0.1c0,0,0,0.1,0,0.1c0,0,0,0.1,0,0.1c0,0,0,0.1-0.1,0.1
			c0,0-0.1,0.1-0.1,0.1c-0.1,0-0.1,0-0.2,0l-0.3,0l0,0.4l-0.3,0l0-1.2L181.6,118.7z M181.5,119.3
			C181.5,119.3,181.6,119.3,181.5,119.3c0.1,0,0.1,0,0.2,0c0,0,0,0,0.1-0.1c0,0,0-0.1,0-0.1c0,0,0-0.1,0-0.1c0,0,0,0,0-0.1
			c0,0,0,0-0.1,0c0,0-0.1,0-0.1,0l-0.2,0l0,0.3L181.5,119.3z M182.9,118.8c0.1,0,0.1,0,0.1,0c0,0,0.1,0,0.1,0.1c0,0,0,0.1,0.1,0.1
			c0,0,0,0.1,0,0.1c0,0.1,0,0.1-0.1,0.2c0,0-0.1,0.1-0.1,0.1v0c0,0,0.1,0,0.1,0c0,0,0,0,0,0.1c0,0,0,0.1,0,0.1c0,0,0,0.1,0,0.1
			c0,0,0,0,0,0.1c0,0,0,0.1,0,0.1c0,0,0,0.1,0,0.1c0,0,0,0,0,0.1l-0.3,0c0,0,0-0.1,0-0.1c0-0.1,0-0.1,0-0.1c0-0.1,0-0.1,0-0.1
			c0,0-0.1,0-0.1-0.1l-0.3,0l0,0.5l-0.3,0l0.1-1.2L182.9,118.8z M182.7,119.3c0.1,0,0.1,0,0.1,0c0,0,0-0.1,0.1-0.1
			c0-0.1,0-0.1,0-0.1c0,0-0.1,0-0.1,0l-0.3,0l0,0.3L182.7,119.3z M183.7,118.9l-0.1,1.2l-0.3,0l0.1-1.2L183.7,118.9z M184.3,118.9
			l0.4,0.8l0,0l0.1-0.8l0.2,0l-0.1,1.2l-0.3,0l-0.4-0.8l0,0l-0.1,0.8l-0.2,0l0.1-1.2L184.3,118.9z M185.2,119.2l0-0.2l0.9,0.1l0,0.2
			l-0.3,0l-0.1,0.9l-0.3,0l0.1-0.9L185.2,119.2z M186.8,119.6c0-0.1,0.1-0.1,0.1-0.2c0.1,0,0.1-0.1,0.2-0.1c0.1,0,0.2,0,0.2,0
			c0.1,0,0.2,0,0.2,0.1c0.1,0,0.1,0.1,0.2,0.2c0,0.1,0.1,0.1,0.1,0.2c0,0.1,0,0.2,0,0.2c0,0.1,0,0.2-0.1,0.2c0,0.1-0.1,0.1-0.1,0.2
			c-0.1,0-0.1,0.1-0.2,0.1c-0.1,0-0.2,0-0.2,0c-0.1,0-0.2,0-0.2-0.1c-0.1,0-0.1-0.1-0.2-0.2c0-0.1-0.1-0.1-0.1-0.2
			c0-0.1,0-0.2,0-0.2C186.7,119.8,186.7,119.7,186.8,119.6z M186.9,120c0,0,0,0.1,0,0.1c0,0,0,0.1,0.1,0.1c0,0,0.1,0,0.1,0.1
			c0.1,0,0.1,0,0.2,0c0,0,0.1,0,0.1-0.1s0.1-0.1,0.1-0.1c0,0,0-0.1,0-0.1c0-0.1,0-0.1,0-0.1c0,0,0-0.1,0-0.1s0-0.1-0.1-0.1
			c0,0-0.1,0-0.1-0.1c-0.1,0-0.1,0-0.1,0c0,0-0.1,0-0.1,0.1c0,0-0.1,0.1-0.1,0.1c0,0,0,0.1,0,0.1C186.9,119.9,186.9,120,186.9,120z
			 M188.4,119.6l0.3,0.9l0,0l0.2-0.8l0.2,0.1l-0.3,1.1l-0.2-0.1l-0.3-0.9l0,0l-0.2,0.8l-0.2-0.1l0.3-1.1L188.4,119.6z M189.8,120.1
			l0.1-0.2l0.9,0.2l-0.1,0.2l-0.3-0.1l-0.2,0.9l-0.2-0.1l0.2-0.9L189.8,120.1z M191.2,120.3l-0.1,0.4l0.4,0.1l0.1-0.4l0.2,0.1
			l-0.3,1.1l-0.2-0.1l0.1-0.5l-0.4-0.1l-0.1,0.5l-0.2-0.1l0.3-1.1L191.2,120.3z M193,120.9l-0.1,0.2l-0.6-0.2l-0.1,0.2l0.5,0.2
			l-0.1,0.2l-0.5-0.2l-0.1,0.3l0.6,0.2l-0.1,0.2l-0.8-0.3l0.4-1.1L193,120.9z M194.3,121.4c0,0,0.1,0,0.1,0.1c0,0,0.1,0.1,0.1,0.1
			c0,0,0,0.1,0,0.1c0,0,0,0.1,0,0.1c0,0.1-0.1,0.1-0.1,0.1c0,0-0.1,0.1-0.2,0.1l0,0c0,0,0,0,0.1,0.1c0,0,0,0,0,0.1c0,0,0,0.1,0,0.1
			s0,0.1,0,0.1c0,0,0,0,0,0.1c0,0,0,0,0,0.1c0,0,0,0,0,0.1c0,0,0,0,0,0.1l-0.2-0.1c0,0,0-0.1,0-0.1c0,0,0-0.1,0-0.1
			c0-0.1,0-0.1,0-0.1s-0.1-0.1-0.1-0.1l-0.2-0.1l-0.2,0.4l-0.2-0.1l0.4-1.1L194.3,121.4z M194,121.8c0.1,0,0.1,0,0.1,0
			c0,0,0.1,0,0.1-0.1c0-0.1,0-0.1,0-0.1c0,0-0.1-0.1-0.1-0.1l-0.3-0.1l-0.1,0.3L194,121.8z M195.1,121.7l-0.4,1.1l-0.2-0.1l0.4-1.1
			L195.1,121.7z M195.7,122l-0.1,0.8l0,0l0.6-0.6l0.3,0.1l-0.5,1.1l-0.2-0.1l0.3-0.7l0,0l-0.6,0.6l-0.2-0.1l0.1-0.9l0,0l-0.3,0.7
			l-0.2-0.1l0.5-1.1L195.7,122z M197.1,123c0.1-0.1,0.1-0.1,0.2-0.1c0.1,0,0.1,0,0.2,0c0.1,0,0.2,0,0.2,0.1c0.1,0,0.1,0.1,0.2,0.2
			c0,0.1,0.1,0.1,0.1,0.2c0,0.1,0,0.1,0,0.2c0,0.1,0,0.2-0.1,0.2c0,0.1-0.1,0.1-0.1,0.2c-0.1,0.1-0.1,0.1-0.2,0.1
			c-0.1,0-0.1,0-0.2,0c-0.1,0-0.2,0-0.2-0.1c-0.1,0-0.1-0.1-0.2-0.1s-0.1-0.1-0.1-0.2c0-0.1,0-0.1,0-0.2c0-0.1,0-0.2,0.1-0.2
			C197,123.1,197,123,197.1,123z M197.1,123.4c0,0,0,0.1,0,0.1c0,0,0,0.1,0,0.1c0,0,0.1,0.1,0.1,0.1c0.1,0,0.1,0,0.1,0
			c0,0,0.1,0,0.1,0c0,0,0.1-0.1,0.1-0.1c0,0,0.1-0.1,0.1-0.1c0,0,0-0.1,0.1-0.1c0,0,0-0.1,0-0.1c0,0,0-0.1,0-0.1
			c0,0-0.1-0.1-0.1-0.1c-0.1,0-0.1,0-0.1,0c0,0-0.1,0-0.1,0c0,0-0.1,0.1-0.1,0.1c0,0-0.1,0.1-0.1,0.1
			C197.1,123.3,197.1,123.4,197.1,123.4z M199.2,123.7l-0.1,0.2l-0.5-0.3l-0.1,0.2l0.4,0.2l-0.1,0.2l-0.4-0.2l-0.2,0.4l-0.2-0.1
			l0.6-1L199.2,123.7z M199.7,124l0.2,0.1l0,0.5l0.5-0.3l0.2,0.1l-0.7,0.4l-0.2,0.4l-0.2-0.1l0.2-0.4L199.7,124z M200.6,124.9
			c0.1,0,0.1-0.1,0.2-0.1c0.1,0,0.1,0,0.2,0c0.1,0,0.2,0,0.2,0.1c0.1,0,0.1,0.1,0.2,0.2c0,0.1,0.1,0.1,0.1,0.2c0,0.1,0,0.1,0,0.2
			c0,0.1-0.1,0.2-0.1,0.2c0,0.1-0.1,0.1-0.2,0.2c-0.1,0-0.1,0.1-0.2,0.1c-0.1,0-0.1,0-0.2,0c-0.1,0-0.2,0-0.2-0.1
			c-0.1,0-0.1-0.1-0.2-0.2c0-0.1-0.1-0.1-0.1-0.2c0-0.1,0-0.1,0-0.2c0-0.1,0.1-0.1,0.1-0.2C200.5,125.1,200.5,125,200.6,124.9z
			 M200.6,125.4c0,0,0,0.1,0,0.1c0,0,0,0.1,0,0.1s0.1,0.1,0.1,0.1c0,0,0.1,0,0.1,0.1c0,0,0.1,0,0.1,0c0,0,0.1,0,0.1-0.1
			c0,0,0.1-0.1,0.1-0.1c0,0,0-0.1,0.1-0.1c0,0,0-0.1,0-0.1c0,0,0-0.1,0-0.1c0,0-0.1-0.1-0.1-0.1c0,0-0.1,0-0.1-0.1c0,0-0.1,0-0.1,0
			c0,0-0.1,0-0.1,0.1c0,0-0.1,0.1-0.1,0.1C200.6,125.3,200.6,125.4,200.6,125.4z M202,126.8c-0.1,0-0.2,0-0.4-0.1
			c-0.1-0.1-0.2-0.2-0.2-0.3c0-0.1,0-0.2,0.1-0.4l0.4-0.6l0.2,0.1l-0.4,0.6c0,0,0,0.1,0,0.1c0,0,0,0.1,0,0.1c0,0,0,0.1,0,0.1
			c0,0,0,0.1,0.1,0.1c0.1,0.1,0.1,0.1,0.2,0.1c0.1,0,0.1-0.1,0.2-0.1l0.4-0.6l0.2,0.1l-0.4,0.6C202.2,126.7,202.1,126.8,202,126.8z
			 M203.5,126.5c0,0,0.1,0.1,0.1,0.1c0,0,0,0.1,0,0.1c0,0,0,0.1,0,0.1s0,0.1-0.1,0.1c0,0.1-0.1,0.1-0.1,0.1c-0.1,0-0.1,0-0.2,0l0,0
			c0,0,0,0.1,0,0.1c0,0,0,0.1,0,0.1c0,0,0,0.1,0,0.1c0,0,0,0.1,0,0.1c0,0,0,0,0,0.1c0,0,0,0,0,0.1c0,0,0,0,0,0.1c0,0,0,0,0,0.1
			l-0.2-0.2c0,0,0-0.1,0.1-0.1c0,0,0.1-0.1,0.1-0.1c0-0.1,0-0.1,0-0.1c0,0,0-0.1-0.1-0.1l-0.2-0.2l-0.3,0.4l-0.2-0.2l0.7-0.9
			L203.5,126.5z M203.1,126.9c0,0,0.1,0.1,0.1,0c0,0,0.1,0,0.1-0.1c0,0,0-0.1,0-0.1c0,0,0-0.1-0.1-0.1l-0.2-0.2l-0.2,0.3
			L203.1,126.9z M204.8,127.5c0,0,0.1,0.1,0.1,0.1c0,0,0,0.1,0.1,0.1c0,0,0,0.1,0,0.1c0,0,0,0.1-0.1,0.1c0,0-0.1,0.1-0.1,0.1
			c0,0-0.1,0-0.2,0c0,0.1,0.1,0.1,0.1,0.2c0,0.1,0,0.1-0.1,0.2c0,0-0.1,0.1-0.1,0.1c0,0-0.1,0-0.1,0c0,0-0.1,0-0.1,0s-0.1,0-0.1-0.1
			l-0.4-0.4l0.7-0.9L204.8,127.5z M204.2,128.3C204.2,128.3,204.2,128.3,204.2,128.3c0.1,0.1,0.1,0.1,0.1,0.1c0,0,0,0,0.1,0
			c0,0,0,0,0.1,0c0,0,0.1-0.1,0-0.1c0,0,0-0.1-0.1-0.1l-0.2-0.2l-0.2,0.2L204.2,128.3z M204.5,127.9c0,0,0.1,0,0.1,0
			c0,0,0.1,0,0.1-0.1c0,0,0,0,0-0.1c0,0,0,0,0-0.1c0,0,0,0,0-0.1c0,0,0,0,0,0l-0.2-0.2l-0.2,0.2L204.5,127.9z M205.2,129.3
			c-0.1,0-0.2-0.1-0.3-0.2c-0.1-0.1-0.2-0.2-0.2-0.3c0-0.1,0-0.2,0.1-0.3l0.5-0.5l0.2,0.2l-0.5,0.5c0,0,0,0-0.1,0.1c0,0,0,0.1,0,0.1
			c0,0,0,0.1,0,0.1c0,0,0,0.1,0.1,0.1c0.1,0.1,0.1,0.1,0.2,0.1c0.1,0,0.1,0,0.2-0.1l0.5-0.5l0.2,0.2l-0.5,0.5
			C205.5,129.3,205.4,129.3,205.2,129.3z M206.1,128.9l0.1-0.2l0.7,0.6l-0.1,0.2l-0.3-0.2l-0.6,0.7l-0.2-0.2l0.6-0.7L206.1,128.9z
			 M206.8,129.6l0.1-0.2l0.7,0.7l-0.1,0.2l-0.2-0.2l-0.7,0.7l-0.2-0.2l0.7-0.7L206.8,129.6z M207.6,130.5c0.1,0,0.1-0.1,0.2-0.1
			s0.1,0,0.2,0c0.1,0,0.1,0.1,0.2,0.1c0.1,0.1,0.1,0.1,0.1,0.2c0,0.1,0,0.1,0,0.2s0,0.1-0.1,0.2c0,0.1-0.1,0.1-0.1,0.2
			c-0.1,0.1-0.1,0.1-0.2,0.1c-0.1,0-0.1,0-0.2,0.1c-0.1,0-0.1,0-0.2,0c-0.1,0-0.1-0.1-0.2-0.1c-0.1-0.1-0.1-0.1-0.1-0.2
			c0-0.1,0-0.1,0-0.2c0-0.1,0-0.1,0.1-0.2c0-0.1,0.1-0.1,0.1-0.2C207.4,130.6,207.5,130.6,207.6,130.5z M207.4,131
			c0,0,0,0.1-0.1,0.1c0,0,0,0.1,0,0.1c0,0,0,0.1,0.1,0.1c0,0,0.1,0.1,0.1,0.1c0,0,0.1,0,0.1,0c0,0,0.1,0,0.1,0c0,0,0.1-0.1,0.1-0.1
			c0,0,0.1-0.1,0.1-0.1c0,0,0-0.1,0.1-0.1c0,0,0-0.1,0-0.1c0,0,0-0.1-0.1-0.1c0,0-0.1-0.1-0.1-0.1c0,0-0.1,0-0.1,0c0,0-0.1,0-0.1,0
			c0,0-0.1,0.1-0.1,0.1C207.5,130.9,207.5,130.9,207.4,131z M208.9,131.5l-0.3,0.9l0,0l0.6-0.5l0.2,0.2l-0.9,0.8l-0.2-0.2l0.3-0.9
			l0,0l-0.6,0.5l-0.2-0.2l0.9-0.8L208.9,131.5z"/>
	</g>
	<circle id="Type_on_this_path_to_add_text__x26__move_to_artwork_layer" class="st2" cx="180" cy="157.8" r="37.1"/>
</g>
<g id="Artwork">
</g>
<g id="rainbow">
	<circle class="Through_x0020_Cut" cx="180" cy="157.8" r="47.2"/>
	<g id="NLk2M2.tif">
		
			<image style="overflow:visible;" width="531" height="531" id="Layer_1_00000054268100203490954680000016120649092371539626_" xlink:href="9C99DF97255C8B4B.png"  transform="matrix(0.24 0 0 0.24 122.4122 96.8021)">
		</image>
	</g>
</g>
<g id="Pronoun_text_-_font_active">
	<text transform="matrix(1 0 0 1 156.262 147.8831)" class="st3 st4 st5">Pronoun</text>
	<text transform="matrix(1 0 0 1 156.262 162.5014)" class="st3 st4 st5">Pronoun</text>
	<text transform="matrix(1 0 0 1 156.262 175.5665)" class="st3 st4 st5">Pronoun</text>
</g>
<g id="He_x2F_him_x2F_his_-_expanded_text" class="st6">
	<g class="st7">
		<path class="st3" d="M180.8,129.2v15.7h-2.7v-6.5h-5v6.5h-2.7v-15.7h2.7v6.5h5v-6.5H180.8z"/>
		<path class="st3" d="M189.7,141.2l1.8,2.1c-1.3,1.1-2.5,1.6-3.9,1.6c-1.6,0-3-0.7-4-1.9l0,0c-0.2-0.2-0.4-0.5-0.5-0.8l0,0
			c-0.2-0.4-0.3-0.7-0.4-1.1l0,0c-0.5-2.3,0.6-4.6,2.8-5.6s4.7-0.3,6,1.6h0c0,0.1,0.1,0.1,0.1,0.2c0,0,0,0.1,0.1,0.1
			c0,0.1,0.1,0.1,0.1,0.2c0,0,0,0.1,0,0.1c0,0.1,0.1,0.2,0.1,0.3l0,0l0,0l0,0l0,0l0,0l0,0l0,0l0,0l0,0l0.5,1.3l-2.7,1.1l-0.4,0.2
			l-3,1.2c0.3,0.2,0.7,0.3,1.1,0.3C188.2,142.1,188.9,141.9,189.7,141.2z M185.2,139.6L185.2,139.6l1.7-0.7l1.7-0.7c0,0,0,0,0,0
			c-0.4-0.3-0.8-0.4-1.3-0.4c-0.3,0-0.5,0.1-0.8,0.2C185.8,138.2,185.3,138.8,185.2,139.6L185.2,139.6z"/>
	</g>
	<g class="st7">
		<path class="st3" d="M179.2,167.3V183h-2.7v-6.5h-5v6.5h-2.7v-15.7h2.7v6.5h5v-6.5H179.2z"/>
		<path class="st3" d="M181,170.2v-2.9h2.7v2.9H181z M181,183v-9.9h2.7v9.9H181z"/>
		<path class="st3" d="M192.8,181c-0.5,1.2-1.6,1.9-2.9,2h-3.9v-2.7h3.8c0.2,0,0.4-0.2,0.4-0.4s-0.2-0.4-0.4-0.4h-1.6
			c-1.7,0-3.1-1.4-3.1-3.1s1.4-3.1,3.1-3.1h3.8v2.7h-3.8c-0.2,0-0.4,0.2-0.4,0.4c0,0.2,0.2,0.4,0.4,0.4h1.6c0.8,0,1.6,0.3,2.2,0.9
			C193,178.5,193.3,179.9,192.8,181z"/>
	</g>
	<g class="st7">
		<path class="st3" d="M176.1,147.5v15.7h-2.7v-6.5h-5v6.5h-2.7v-15.7h2.7v6.5h5v-6.5H176.1z"/>
		<path class="st3" d="M177.9,150.4v-2.9h2.7v2.9H177.9z M177.9,163.1v-9.9h2.7v9.9H177.9z"/>
		<path class="st3" d="M197.1,157.6v5.5h-2.7v-5.5c0-0.9-0.7-1.6-1.6-1.6s-1.6,0.7-1.6,1.6v5.5h-2.7v-5.5c0-0.9-0.7-1.6-1.6-1.6
			s-1.6,0.7-1.6,1.6v5.5h-2.7v-9.9h2.7v0.3c1.6-0.6,3.4-0.3,4.6,0.9c0.8-0.8,1.9-1.2,3-1.2C195.1,153.3,197.1,155.2,197.1,157.6z"/>
	</g>
</g>
<g id="She_x2F_her_x2F_hers_-_expanded_text" class="st6">
	<g class="st7">
		<path class="st3" d="M174.1,141.6c-0.1,2.5-2.2,4.3-4.8,4.3c-3.3,0-4.4-2.3-4.7-3l2.6-1c0.2,0.6,0.7,1.2,2.1,1.2
			c1.1,0,2-0.7,2-1.7c0-0.4,0.1-1.4-2.5-2.3c-3.7-1.3-4.4-3.4-4.3-5c0.1-2.5,2.2-4.3,4.8-4.3c3.3,0,4.4,2.3,4.7,3l-2.6,1
			c-0.2-0.6-0.7-1.2-2.1-1.2c-1.1,0-2,0.7-2,1.7c0,0.4-0.1,1.4,2.5,2.3C173.5,137.8,174.1,140,174.1,141.6z"/>
		<path class="st3" d="M184.6,140.4v5.5h-2.7v-5.5c0-0.9-0.7-1.7-1.7-1.7c-0.9,0-1.7,0.7-1.7,1.7v5.5h-2.7v-15.7h2.7v6.1
			c0.5-0.2,1.1-0.3,1.7-0.3C182.7,136.1,184.6,138,184.6,140.4z"/>
		<path class="st3" d="M193.5,142.3l1.8,2.1c-1.3,1.1-2.5,1.6-3.9,1.6c-1.6,0-3-0.7-4-1.9l0,0c-0.2-0.2-0.4-0.5-0.5-0.8l0,0
			c-0.2-0.4-0.3-0.7-0.4-1.1l0,0c-0.5-2.3,0.6-4.6,2.8-5.6s4.7-0.3,6,1.6h0c0,0.1,0.1,0.1,0.1,0.2c0,0,0,0.1,0.1,0.1
			c0,0.1,0.1,0.1,0.1,0.2c0,0,0,0.1,0,0.1c0,0.1,0.1,0.2,0.1,0.3l0,0l0,0l0,0l0,0l0,0l0,0l0,0l0,0l0,0l0.5,1.3l-2.7,1.1l-0.4,0.2
			l-3,1.2c0.3,0.2,0.7,0.3,1.1,0.3C192,143.1,192.7,143,193.5,142.3z M189,140.6L189,140.6l1.7-0.7l1.7-0.7c0,0,0,0,0,0
			c-0.4-0.3-0.8-0.4-1.3-0.4c-0.3,0-0.5,0.1-0.8,0.2C189.6,139.2,189.1,139.9,189,140.6L189,140.6z"/>
	</g>
	<g class="st7">
		<path class="st3" d="M171.9,168.4v15.7h-2.7v-6.5h-5v6.5h-2.7v-15.7h2.7v6.5h5v-6.5H171.9z"/>
		<path class="st3" d="M180.8,180.4l1.8,2.1c-1.3,1.1-2.5,1.6-3.9,1.6c-1.6,0-3-0.7-4-1.9l0,0c-0.2-0.2-0.4-0.5-0.5-0.8l0,0
			c-0.2-0.4-0.3-0.7-0.4-1.1l0,0c-0.5-2.3,0.6-4.6,2.8-5.6s4.7-0.3,6,1.6h0c0,0.1,0.1,0.1,0.1,0.2c0,0,0,0.1,0.1,0.1
			c0,0.1,0.1,0.1,0.1,0.2c0,0,0,0.1,0,0.1c0,0.1,0.1,0.2,0.1,0.3l0,0l0,0l0,0l0,0l0,0l0,0l0,0l0,0l0,0l0.5,1.3l-2.7,1.1l-0.4,0.2
			l-3,1.2c0.3,0.2,0.7,0.3,1.1,0.3C179.4,181.3,180,181.1,180.8,180.4z M176.4,178.8L176.4,178.8l1.7-0.7l1.7-0.7c0,0,0,0,0,0
			c-0.4-0.3-0.8-0.4-1.3-0.4c-0.3,0-0.5,0.1-0.8,0.2C176.9,177.4,176.4,178,176.4,178.8L176.4,178.8z"/>
		<path class="st3" d="M191.1,175.3l-1.9,1.9c-0.3-0.3-0.7-0.4-1-0.2c-0.4,0.1-0.6,0.5-0.6,0.9v6.2h-2.7v-9.9h2.7v0.1
			c0.3-0.1,0.6-0.1,1-0.1C189.5,174.2,190.5,174.6,191.1,175.3z"/>
		<path class="st3" d="M199.8,182.1c-0.5,1.2-1.6,1.9-2.9,2h-3.9v-2.7h3.8c0.2,0,0.4-0.2,0.4-0.4s-0.2-0.4-0.4-0.4h-1.6
			c-1.7,0-3.1-1.4-3.1-3.1s1.4-3.1,3.1-3.1h3.8v2.7h-3.8c-0.2,0-0.4,0.2-0.4,0.4c0,0.2,0.2,0.4,0.4,0.4h1.6c0.8,0,1.6,0.3,2.2,0.9
			C200,179.6,200.3,180.9,199.8,182.1z"/>
	</g>
	<g class="st7">
		<path class="st3" d="M176.7,148.5v15.7H174v-6.5h-5v6.5h-2.7v-15.7h2.7v6.5h5v-6.5H176.7z"/>
		<path class="st3" d="M185.5,160.6l1.8,2.1c-1.3,1.1-2.5,1.6-3.9,1.6c-1.6,0-3-0.7-4-1.9l0,0c-0.2-0.2-0.4-0.5-0.5-0.8l0,0
			c-0.2-0.4-0.3-0.7-0.4-1.1l0,0c-0.5-2.3,0.6-4.6,2.8-5.6c2.1-1,4.7-0.3,6,1.6h0c0,0.1,0.1,0.1,0.1,0.2c0,0,0,0.1,0.1,0.1
			c0,0.1,0.1,0.1,0.1,0.2c0,0,0,0.1,0,0.1c0,0.1,0.1,0.2,0.1,0.3l0,0l0,0l0,0l0,0l0,0l0,0l0,0l0,0l0,0l0.5,1.3l-2.7,1.1l-0.4,0.2
			l-3,1.2c0.3,0.2,0.7,0.3,1.1,0.3C184.1,161.4,184.7,161.2,185.5,160.6z M181.1,158.9L181.1,158.9l1.7-0.7l1.7-0.7c0,0,0,0,0,0
			c-0.4-0.3-0.8-0.4-1.3-0.4c-0.3,0-0.5,0.1-0.8,0.2C181.7,157.5,181.2,158.2,181.1,158.9L181.1,158.9z"/>
		<path class="st3" d="M195.9,155.4l-1.9,1.9c-0.3-0.3-0.7-0.4-1-0.2c-0.4,0.1-0.6,0.5-0.6,0.9v6.2h-2.7v-9.9h2.7v0.1
			c0.3-0.1,0.6-0.1,1-0.1C194.3,154.3,195.2,154.7,195.9,155.4z"/>
	</g>
</g>
<g id="They_x2F_them_x2F_theirs__-_expanded_text" class="st6">
	<g class="st7">
		<path class="st3" d="M169,129.5v2.3h-2.7V143h-2.3v-11.2h-2.7v-2.3H169z"/>
		<path class="st3" d="M177.7,138.3v4.7h-2.3v-4.7c0-0.8-0.6-1.4-1.4-1.4c-0.8,0-1.4,0.6-1.4,1.4v4.7h-2.3v-13.5h2.3v5.3
			c0.5-0.2,0.9-0.3,1.4-0.3C176,134.5,177.7,136.2,177.7,138.3z"/>
		<path class="st3" d="M185.3,139.9l1.5,1.8c-1.1,0.9-2.1,1.4-3.4,1.4c-1.3,0-2.6-0.6-3.5-1.6l0,0c-0.2-0.2-0.3-0.4-0.4-0.7l0,0
			c-0.2-0.3-0.3-0.6-0.4-1l0,0c-0.5-2,0.5-4,2.4-4.8c1.9-0.8,4-0.2,5.2,1.4h0c0,0,0.1,0.1,0.1,0.1c0,0,0,0.1,0.1,0.1
			c0,0.1,0.1,0.1,0.1,0.2c0,0,0,0,0,0.1c0,0.1,0.1,0.2,0.1,0.2l0,0l0,0l0,0l0,0l0,0l0,0l0,0l0,0l0,0l0.5,1.1l-2.4,1l-0.3,0.1
			l-2.6,1.1c0.3,0.2,0.6,0.3,1,0.3C184,140.6,184.6,140.5,185.3,139.9z M181.5,138.5L181.5,138.5l1.5-0.6l1.4-0.6c0,0,0,0,0,0
			c-0.3-0.3-0.7-0.4-1.1-0.4c-0.2,0-0.5,0-0.7,0.1C181.9,137.3,181.5,137.8,181.5,138.5L181.5,138.5z"/>
		<path class="st3" d="M196.3,134.5v10.4c0,2.1-1.7,3.7-3.7,3.7s-3.7-1.7-3.7-3.7h2.3c0,0.8,0.6,1.4,1.4,1.4c0.8,0,1.4-0.6,1.4-1.4
			v-2.2c-1.2,0.5-2.5,0.3-3.5-0.4c-1-0.7-1.6-1.9-1.6-3.1v-4.8h2.3v4.8c0,0.8,0.6,1.4,1.4,1.4c0.8,0,1.4-0.6,1.4-1.4v-4.8H196.3z"/>
	</g>
	<g class="st7">
		<path class="st3" d="M166.7,167.8v2.3h-2.7v11.2h-2.3v-11.2h-2.7v-2.3H166.7z"/>
		<path class="st3" d="M175.4,176.6v4.7H173v-4.7c0-0.8-0.6-1.4-1.4-1.4c-0.8,0-1.4,0.6-1.4,1.4v4.7h-2.3v-13.5h2.3v5.3
			c0.5-0.2,0.9-0.3,1.4-0.3C173.7,172.8,175.4,174.5,175.4,176.6z"/>
		<path class="st3" d="M183,178.2l1.5,1.8c-1.1,0.9-2.1,1.4-3.4,1.4c-1.3,0-2.6-0.6-3.5-1.6l0,0c-0.2-0.2-0.3-0.4-0.4-0.7l0,0
			c-0.2-0.3-0.3-0.6-0.4-1l0,0c-0.5-2,0.5-4,2.4-4.8c1.9-0.8,4-0.2,5.2,1.4h0c0,0,0.1,0.1,0.1,0.1c0,0,0,0.1,0.1,0.1
			c0,0.1,0.1,0.1,0.1,0.2c0,0,0,0,0,0.1c0,0.1,0.1,0.2,0.1,0.2l0,0l0,0l0,0l0,0l0,0l0,0l0,0l0,0l0,0l0.5,1.1l-2.4,1l-0.3,0.1
			l-2.6,1.1c0.3,0.2,0.6,0.3,1,0.3C181.8,178.9,182.3,178.8,183,178.2z M179.2,176.8L179.2,176.8l1.5-0.6l1.4-0.6c0,0,0,0,0,0
			c-0.3-0.3-0.7-0.4-1.1-0.4c-0.2,0-0.5,0-0.7,0.1C179.7,175.6,179.2,176.1,179.2,176.8L179.2,176.8z"/>
		<path class="st3" d="M186.5,170.3v-2.5h2.3v2.5H186.5z M186.5,181.3v-8.5h2.3v8.5H186.5z"/>
		<path class="st3" d="M195.8,173.7l-1.7,1.7c-0.2-0.2-0.6-0.3-0.9-0.2c-0.3,0.1-0.5,0.4-0.5,0.8v5.3h-2.3v-8.5h2.3v0.1
			c0.3-0.1,0.5-0.1,0.8-0.1C194.4,172.8,195.2,173.2,195.8,173.7z"/>
		<path class="st3" d="M203.3,179.6c-0.4,1-1.4,1.7-2.5,1.7h-3.4V179h3.3c0.2,0,0.4-0.2,0.4-0.4s-0.2-0.4-0.4-0.4h-1.4
			c-1.5,0-2.7-1.2-2.7-2.7s1.2-2.7,2.7-2.7h3.3v2.3h-3.3c-0.2,0-0.4,0.2-0.4,0.4c0,0.2,0.2,0.4,0.4,0.4h1.4c0.7,0,1.4,0.3,1.9,0.8
			C203.5,177.5,203.7,178.6,203.3,179.6z"/>
	</g>
	<g class="st7">
		<path class="st3" d="M167.3,148.7v2.3h-2.7v11.2h-2.3V151h-2.7v-2.3H167.3z"/>
		<path class="st3" d="M176,157.5v4.7h-2.3v-4.7c0-0.8-0.6-1.4-1.4-1.4c-0.8,0-1.4,0.6-1.4,1.4v4.7h-2.3v-13.5h2.3v5.3
			c0.5-0.2,0.9-0.3,1.4-0.3C174.4,153.7,176,155.4,176,157.5z"/>
		<path class="st3" d="M183.7,159.1l1.5,1.8c-1.1,0.9-2.1,1.4-3.4,1.4c-1.3,0-2.6-0.6-3.5-1.6l0,0c-0.2-0.2-0.3-0.4-0.4-0.7l0,0
			c-0.2-0.3-0.3-0.6-0.4-1l0,0c-0.5-2,0.5-4,2.4-4.8c1.9-0.8,4-0.2,5.2,1.4h0c0,0,0.1,0.1,0.1,0.1c0,0,0,0.1,0.1,0.1
			c0,0.1,0.1,0.1,0.1,0.2c0,0,0,0,0,0.1c0,0.1,0.1,0.2,0.1,0.2l0,0l0,0l0,0l0,0l0,0l0,0l0,0l0,0l0,0l0.5,1.1l-2.4,1l-0.3,0.1
			l-2.6,1.1c0.3,0.2,0.6,0.3,1,0.3C182.4,159.8,183,159.7,183.7,159.1z M179.8,157.7L179.8,157.7l1.5-0.6l1.4-0.6c0,0,0,0,0,0
			c-0.3-0.3-0.7-0.4-1.1-0.4c-0.2,0-0.5,0-0.7,0.1C180.3,156.4,179.9,157,179.8,157.7L179.8,157.7z"/>
		<path class="st3" d="M199.8,157.4v4.8h-2.3v-4.8c0-0.8-0.6-1.4-1.4-1.4s-1.4,0.6-1.4,1.4v4.8h-2.3v-4.8c0-0.8-0.6-1.4-1.4-1.4
			c-0.8,0-1.4,0.6-1.4,1.4v4.8h-2.3v-8.5h2.3v0.3c1.4-0.5,2.9-0.3,4,0.8c0.7-0.7,1.6-1,2.6-1C198.1,153.7,199.8,155.4,199.8,157.4z"
			/>
	</g>
</g>
<g id="Template">
	<g>
		<path class="st3" d="M0,0v468h360V0H0z M179.9,205.1c-26.1,0-47.2-21.2-47.2-47.2c0-26.1,21.2-47.2,47.2-47.2
			c26.1,0,47.2,21.2,47.2,47.2C227.2,183.9,206,205.1,179.9,205.1z"/>
	</g>
	<g>
		<g>
			<path class="st8" d="M94.1,36.6L91.5,39l-1.4-1.6l4.2-3.5h2.1v13.9h-2.4V36.6z"/>
			<path class="st8" d="M103,33.9h2.4l-1.7,5.2h-2.1L103,33.9z M107.1,33.9h2.4l-1.7,5.2h-2.1L107.1,33.9z"/>
			<path class="st8" d="M118,33.9h5.4c2.1,0,4.3,1,4.3,3.5c0,1.6-1,2.6-2.4,3v0c1.7,0.2,3,1.6,3,3.4c0,3-2.6,4-5.3,4h-5V33.9z
				 M120.5,39.5h2.3c1.6,0,2.5-0.7,2.5-1.7c0-1.2-0.8-1.8-2.7-1.8h-2V39.5z M120.5,45.7h2.3c1.3,0,3-0.2,3-2c0-1.5-0.9-2-2.9-2h-2.4
				V45.7z"/>
			<path class="st8" d="M139.1,47.8h-2.2v-1.5h0c-0.4,0.9-1.3,1.7-2.9,1.7c-2.5,0-3.4-1.8-3.4-3.7v-5.9h2.4v4.8c0,1,0.1,2.8,1.7,2.8
				c1.6,0,2.2-1.1,2.2-2.4v-5.1h2.4V47.8z"/>
			<path class="st8" d="M140.6,40.4v-2h1.9v-2.7h2.4v2.7h2.6v2h-2.6v4.1c0,0.9,0.3,1.5,1.3,1.5c0.4,0,1-0.1,1.3-0.3v2
				c-0.5,0.2-1.3,0.3-1.9,0.3c-2.5,0-3.1-1.1-3.1-3.3v-4.3H140.6z"/>
			<path class="st8" d="M148.3,40.4v-2h1.9v-2.7h2.4v2.7h2.6v2h-2.6v4.1c0,0.9,0.3,1.5,1.3,1.5c0.4,0,1-0.1,1.3-0.3v2
				c-0.5,0.2-1.3,0.3-1.9,0.3c-2.5,0-3.1-1.1-3.1-3.3v-4.3H148.3z"/>
			<path class="st8" d="M161.7,38.1c2.8,0,5.1,2,5.1,4.9s-2.3,4.9-5.1,4.9s-5.1-2-5.1-4.9S158.8,38.1,161.7,38.1z M161.7,45.9
				c1.7,0,2.8-1.4,2.8-2.8s-1-2.8-2.8-2.8c-1.7,0-2.8,1.4-2.8,2.8S159.9,45.9,161.7,45.9z"/>
			<path class="st8" d="M169,38.4h2.2v1.5h0c0.4-0.9,1.3-1.7,2.9-1.7c2.5,0,3.4,1.8,3.4,3.7v5.9h-2.4V43c0-1-0.1-2.8-1.7-2.8
				c-1.6,0-2.2,1.1-2.2,2.4v5.1H169V38.4z"/>
			<path class="st8" d="M189.1,36.1h-4.3v-2.2h11v2.2h-4.3v11.7h-2.5V36.1z"/>
			<path class="st8" d="M199.2,43.9c0.2,1.4,1.2,2.2,2.5,2.2c1.2,0,1.9-0.5,2.5-1.3l1.7,1.3c-1.1,1.4-2.5,1.9-4,1.9
				c-2.8,0-5.1-2-5.1-4.9s2.3-4.9,5.1-4.9c2.6,0,4.4,1.8,4.4,5.1v0.6H199.2z M204,42.1c0-1.4-0.9-2.2-2.4-2.2
				c-1.4,0-2.3,0.9-2.4,2.2H204z"/>
			<path class="st8" d="M208.5,38.4h2.2v1.5h0c0.4-0.9,1.3-1.7,2.9-1.7c1.5,0,2.5,0.6,2.9,1.7c0.7-1.2,1.7-1.7,3.1-1.7
				c2.5,0,3.4,1.8,3.4,4v5.6h-2.4v-5.3c0-1.2-0.4-2.2-1.7-2.2c-1.5,0-2,1.2-2,2.4v5.1h-2.4v-5.6c0-1.2-0.5-1.9-1.6-1.9
				c-1.5,0-2.2,1.1-2.2,2.4v5.1h-2.4V38.4z"/>
			<path class="st8" d="M225.6,38.4h2.2v1.4h0c0.7-1.1,1.9-1.6,3.2-1.6c2.9,0,4.7,2.2,4.7,4.9s-1.9,4.9-4.6,4.9
				c-1.8,0-2.7-0.8-3.2-1.4H228v5.7h-2.4V38.4z M230.7,40.2c-1.7,0-2.8,1.4-2.8,2.8s1,2.8,2.8,2.8c1.7,0,2.8-1.4,2.8-2.8
				S232.4,40.2,230.7,40.2z"/>
			<path class="st8" d="M238,32.9h2.4v14.8H238V32.9z"/>
			<path class="st8" d="M249,46.5L249,46.5c-0.7,1.1-1.8,1.5-3.1,1.5c-1.7,0-3.4-1-3.4-2.8c0-3.1,3.6-3.3,5.9-3.3h0.6v-0.3
				c0-1.2-0.9-1.8-2.2-1.8c-1,0-1.9,0.4-2.5,1l-1.2-1.2c1-1.1,2.5-1.5,4-1.5c4,0,4,2.9,4,4.2v5.4H249V46.5z M248.8,43.6h-0.5
				c-1.3,0-3.5,0.1-3.5,1.5c0,0.9,0.9,1.2,1.6,1.2c1.6,0,2.4-0.8,2.4-2.2V43.6z"/>
			<path class="st8" d="M252.5,40.4v-2h1.9v-2.7h2.4v2.7h2.6v2h-2.6v4.1c0,0.9,0.3,1.5,1.3,1.5c0.4,0,1-0.1,1.3-0.3v2
				c-0.5,0.2-1.3,0.3-1.9,0.3c-2.5,0-3.1-1.1-3.1-3.3v-4.3H252.5z"/>
			<path class="st8" d="M263.1,43.9c0.2,1.4,1.2,2.2,2.5,2.2c1.2,0,1.9-0.5,2.5-1.3l1.7,1.3c-1.1,1.4-2.5,1.9-4,1.9
				c-2.8,0-5.1-2-5.1-4.9s2.3-4.9,5.1-4.9c2.6,0,4.4,1.8,4.4,5.1v0.6H263.1z M268,42.1c0-1.4-0.9-2.2-2.4-2.2
				c-1.4,0-2.3,0.9-2.4,2.2H268z"/>
		</g>
	</g>
	<g>
		<path class="st8" d="M152.6,276.8h3v0.5h-3.6v-5.6h3.5v0.5h-2.9v1.9h2.7v0.5h-2.7V276.8z"/>
		<path class="st8" d="M160.3,277.3h-0.5v-0.6h0c-0.3,0.5-1,0.7-1.4,0.7c-1.2,0-2-0.8-2-2s0.8-2,2-2c0.5,0,1.1,0.2,1.4,0.7h0v-2.9
			h0.5V277.3z M158.3,276.9c0.9,0,1.5-0.6,1.5-1.5c0-0.8-0.6-1.5-1.5-1.5c-0.9,0-1.4,0.6-1.4,1.5
			C156.9,276.3,157.5,276.9,158.3,276.9z"/>
		<path class="st8" d="M161.8,278.1c0.3,0.4,0.8,0.7,1.4,0.7c1.1,0,1.4-0.7,1.4-1.5v-0.7h0c-0.3,0.5-0.9,0.7-1.4,0.7
			c-1.1,0-1.9-0.8-1.9-1.9c0-1.1,0.8-1.9,1.9-1.9c0.4,0,1,0.1,1.4,0.7h0v-0.6h0.5v3.7c0,0.8-0.3,1.9-2,1.9c-0.7,0-1.3-0.2-1.8-0.7
			L161.8,278.1z M163.2,276.8c0.8,0,1.4-0.6,1.4-1.4c0-0.8-0.5-1.4-1.4-1.4c-0.8,0-1.4,0.7-1.4,1.4
			C161.9,276.2,162.5,276.8,163.2,276.8z"/>
		<path class="st8" d="M166.7,275.6c0.1,0.7,0.6,1.3,1.4,1.3c0.6,0,1-0.3,1.2-0.6l0.4,0.3c-0.4,0.6-1,0.8-1.6,0.8
			c-1.1,0-1.9-0.8-1.9-2s0.8-2,1.9-2c1.1,0,1.8,0.8,1.8,1.9v0.2H166.7z M169.2,275.2c0-0.7-0.5-1.2-1.2-1.2c-0.7,0-1.3,0.6-1.3,1.2
			H169.2z"/>
		<path class="st8" d="M174.8,277.4c-1.2,0-2-0.8-2-2s0.8-2,2-2c1.2,0,2,0.8,2,2S175.9,277.4,174.8,277.4z M174.8,274
			c-0.9,0-1.4,0.6-1.4,1.5c0,0.8,0.5,1.5,1.4,1.5c0.9,0,1.4-0.6,1.4-1.5C176.2,274.6,175.6,274,174.8,274z"/>
		<path class="st8" d="M179.5,274.1h-0.9v3.2H178v-3.2h-0.8v-0.5h0.8v-1c0-1,0.5-1.4,1.3-1.4c0.2,0,0.3,0,0.5,0.1l-0.1,0.5
			c-0.1,0-0.3-0.1-0.4-0.1c-0.6,0-0.7,0.4-0.7,1v1h0.9V274.1z"/>
		<path class="st8" d="M182.3,271.3h0.5v2.9h0c0.3-0.5,1-0.7,1.4-0.7c1.2,0,2,0.8,2,2s-0.8,2-2,2c-0.5,0-1.1-0.2-1.4-0.7h0v0.6h-0.5
			V271.3z M184.3,274c-0.9,0-1.5,0.6-1.5,1.5c0,0.8,0.6,1.5,1.5,1.5c0.9,0,1.4-0.6,1.4-1.5C185.7,274.6,185.1,274,184.3,274z"/>
		<path class="st8" d="M189.9,277.3c0-0.2,0-0.4,0-0.6h0c-0.2,0.4-0.8,0.7-1.3,0.7c-0.9,0-1.4-0.5-1.4-1.5v-2.4h0.5v2.1
			c0,0.8,0.2,1.3,1,1.3c0.1,0,1.1-0.1,1.1-1.4v-1.9h0.5v2.9c0,0.2,0,0.5,0,0.8H189.9z"/>
		<path class="st8" d="M193.5,274.1h-1.1v2.2c0,0.6,0.2,0.7,0.5,0.7c0.2,0,0.4-0.1,0.5-0.1l0,0.5c-0.2,0.1-0.4,0.1-0.7,0.1
			c-0.4,0-0.9-0.2-0.9-1v-2.3h-0.8v-0.5h0.8v-1.1h0.5v1.1h1.1V274.1z"/>
		<path class="st8" d="M196.2,274.1h-1.1v2.2c0,0.6,0.2,0.7,0.5,0.7c0.2,0,0.4-0.1,0.5-0.1l0,0.5c-0.2,0.1-0.4,0.1-0.7,0.1
			c-0.4,0-0.9-0.2-0.9-1v-2.3h-0.8v-0.5h0.8v-1.1h0.5v1.1h1.1V274.1z"/>
		<path class="st8" d="M198.7,277.4c-1.2,0-2-0.8-2-2s0.8-2,2-2c1.2,0,2,0.8,2,2S199.8,277.4,198.7,277.4z M198.7,274
			c-0.9,0-1.4,0.6-1.4,1.5c0,0.8,0.5,1.5,1.4,1.5c0.9,0,1.4-0.6,1.4-1.5C200.1,274.6,199.5,274,198.7,274z"/>
		<path class="st8" d="M202.1,273.6c0,0.2,0,0.4,0,0.6h0c0.2-0.4,0.8-0.7,1.3-0.7c0.9,0,1.4,0.5,1.4,1.5v2.4h-0.5v-2.1
			c0-0.8-0.2-1.3-1-1.3c-0.1,0-1.1,0.1-1.1,1.4v1.9h-0.5v-2.9c0-0.2,0-0.5,0-0.8H202.1z"/>
	</g>
	<rect x="133.7" y="268.8" class="st9" width="11" height="11"/>
	<g>
		<path class="st8" d="M103,276.4c-0.4,0.6-1.2,1-2.1,1c-1.7,0-2.9-1.3-2.9-3c0-1.7,1.3-3,2.9-3c0.7,0,1.5,0.3,2,0.9l-0.5,0.4
			c-0.2-0.4-0.9-0.7-1.4-0.7c-1.4,0-2.3,1.1-2.3,2.4c0,1.3,0.9,2.4,2.3,2.4c0.6,0,1.2-0.2,1.6-0.8L103,276.4z"/>
		<path class="st8" d="M106.5,277.3c0-0.2,0-0.4,0-0.6h0c-0.2,0.4-0.8,0.7-1.3,0.7c-0.9,0-1.4-0.5-1.4-1.5v-2.4h0.5v2.1
			c0,0.8,0.2,1.3,1,1.3c0.1,0,1.1-0.1,1.1-1.4v-1.9h0.5v2.9c0,0.2,0,0.5,0,0.8H106.5z"/>
		<path class="st8" d="M110.1,274.1H109v2.2c0,0.6,0.2,0.7,0.5,0.7c0.2,0,0.4-0.1,0.5-0.1l0,0.5c-0.2,0.1-0.4,0.1-0.7,0.1
			c-0.4,0-0.9-0.2-0.9-1v-2.3h-0.8v-0.5h0.8v-1.1h0.5v1.1h1.1V274.1z"/>
		<path class="st8" d="M113.7,277.3h-0.5v-6h0.5V277.3z"/>
		<path class="st8" d="M115.3,272.5c-0.2,0-0.4-0.2-0.4-0.4c0-0.2,0.2-0.4,0.4-0.4c0.2,0,0.4,0.2,0.4,0.4
			C115.7,272.4,115.5,272.5,115.3,272.5z M115.6,277.3h-0.5v-3.7h0.5V277.3z"/>
		<path class="st8" d="M117.4,273.6c0,0.2,0,0.4,0,0.6h0c0.2-0.4,0.8-0.7,1.3-0.7c0.9,0,1.4,0.5,1.4,1.5v2.4h-0.5v-2.1
			c0-0.8-0.2-1.3-1-1.3c-0.1,0-1.1,0.1-1.1,1.4v1.9h-0.5v-2.9c0-0.2,0-0.5,0-0.8H117.4z"/>
		<path class="st8" d="M121.7,275.6c0.1,0.7,0.6,1.3,1.4,1.3c0.6,0,1-0.3,1.2-0.6l0.4,0.3c-0.4,0.6-1,0.8-1.6,0.8
			c-1.1,0-1.9-0.8-1.9-2s0.8-2,1.9-2c1.1,0,1.8,0.8,1.8,1.9v0.2H121.7z M124.2,275.2c0-0.7-0.5-1.2-1.2-1.2c-0.7,0-1.3,0.6-1.3,1.2
			H124.2z"/>
	</g>
	<rect x="80" y="268.8" class="st10" width="11" height="11"/>
	<g>
		<path class="st8" d="M231.6,271.7h1.6c1.1,0,1.9,0.5,1.9,1.5s-0.7,1.5-1.9,1.5h-1.1v2.6h-0.6V271.7z M232.2,274.2h0.9
			c1,0,1.4-0.4,1.4-1c0-0.5-0.3-1-1.4-1h-0.9V274.2z"/>
		<path class="st8" d="M236.1,274.7c0-0.3,0-0.6,0-1.2h0.5v0.7h0c0.2-0.4,0.5-0.8,1.2-0.8c0.2,0,0.3,0,0.4,0l-0.1,0.5
			c-0.1,0-0.2,0-0.3,0c-0.8,0-1.2,0.7-1.2,1.2v2.1h-0.5V274.7z"/>
		<path class="st8" d="M239,272.5c-0.2,0-0.4-0.2-0.4-0.4c0-0.2,0.2-0.4,0.4-0.4c0.2,0,0.4,0.2,0.4,0.4
			C239.4,272.4,239.2,272.5,239,272.5z M239.3,277.3h-0.5v-3.7h0.5V277.3z"/>
		<path class="st8" d="M241.1,273.6c0,0.2,0,0.4,0,0.6h0c0.2-0.4,0.8-0.7,1.2-0.7c0.9,0,1.4,0.5,1.4,1.5v2.4h-0.5v-2.1
			c0-0.8-0.2-1.3-1-1.3c-0.1,0-1.1,0.1-1.1,1.4v1.9h-0.5v-2.9c0-0.2,0-0.5,0-0.8H241.1z"/>
		<path class="st8" d="M246.9,274.1h-1.1v2.2c0,0.6,0.2,0.7,0.5,0.7c0.2,0,0.4-0.1,0.5-0.1l0,0.5c-0.2,0.1-0.4,0.1-0.7,0.1
			c-0.4,0-0.9-0.2-0.9-1v-2.3h-0.8v-0.5h0.8v-1.1h0.5v1.1h1.1V274.1z"/>
		<path class="st8" d="M250,275L250,275c0-0.7-0.3-1.1-1-1.1c-0.4,0-0.8,0.2-1.1,0.4l-0.3-0.4c0.3-0.3,0.9-0.5,1.6-0.5
			c0.7,0,1.4,0.4,1.4,1.3v1.7c0,0.3,0,0.6,0.1,0.8h-0.5c0-0.2,0-0.4,0-0.6h0c-0.3,0.5-0.7,0.7-1.3,0.7c-0.7,0-1.3-0.4-1.3-1.1
			c0-1.2,1.4-1.3,2.3-1.3H250z M249.8,275.5c-0.5,0-1.7,0-1.7,0.8c0,0.5,0.5,0.7,0.9,0.7c0.8,0,1.1-0.5,1.1-1.2v-0.3H249.8z"/>
		<path class="st8" d="M251.8,271.3h0.5v2.9h0c0.3-0.5,1-0.7,1.4-0.7c1.2,0,2,0.8,2,2s-0.8,2-2,2c-0.5,0-1.1-0.2-1.4-0.7h0v0.6h-0.5
			V271.3z M253.8,274c-0.9,0-1.5,0.6-1.5,1.5c0,0.8,0.6,1.5,1.5,1.5c0.9,0,1.4-0.6,1.4-1.5C255.2,274.6,254.6,274,253.8,274z"/>
		<path class="st8" d="M257.3,277.3h-0.5v-6h0.5V277.3z"/>
		<path class="st8" d="M258.9,275.6c0.1,0.7,0.6,1.3,1.4,1.3c0.6,0,1-0.3,1.2-0.6l0.4,0.3c-0.4,0.6-1,0.8-1.6,0.8
			c-1.1,0-1.9-0.8-1.9-2s0.8-2,1.9-2c1.1,0,1.8,0.8,1.8,1.9v0.2H258.9z M261.5,275.2c0-0.7-0.5-1.2-1.2-1.2c-0.7,0-1.3,0.6-1.3,1.2
			H261.5z"/>
		<path class="st8" d="M267.6,275L267.6,275c0-0.7-0.3-1.1-1-1.1c-0.4,0-0.8,0.2-1.1,0.4l-0.3-0.4c0.3-0.3,0.9-0.5,1.6-0.5
			c0.7,0,1.4,0.4,1.4,1.3v1.7c0,0.3,0,0.6,0.1,0.8h-0.5c0-0.2,0-0.4,0-0.6h0c-0.3,0.5-0.7,0.7-1.3,0.7c-0.7,0-1.3-0.4-1.3-1.1
			c0-1.2,1.4-1.3,2.3-1.3H267.6z M267.3,275.5c-0.5,0-1.7,0-1.7,0.8c0,0.5,0.5,0.7,0.9,0.7c0.8,0,1.1-0.5,1.1-1.2v-0.3H267.3z"/>
		<path class="st8" d="M269.4,274.7c0-0.3,0-0.6,0-1.2h0.5v0.7h0c0.2-0.4,0.5-0.8,1.2-0.8c0.2,0,0.3,0,0.4,0l-0.1,0.5
			c-0.1,0-0.2,0-0.3,0c-0.8,0-1.2,0.7-1.2,1.2v2.1h-0.5V274.7z"/>
		<path class="st8" d="M272.4,275.6c0.1,0.7,0.6,1.3,1.4,1.3c0.6,0,1-0.3,1.2-0.6l0.4,0.3c-0.4,0.6-1,0.8-1.6,0.8
			c-1.1,0-1.9-0.8-1.9-2s0.8-2,1.9-2c1.1,0,1.8,0.8,1.8,1.9v0.2H272.4z M274.9,275.2c0-0.7-0.5-1.2-1.2-1.2c-0.7,0-1.3,0.6-1.3,1.2
			H274.9z"/>
		<path class="st8" d="M278.8,275L278.8,275c0-0.7-0.3-1.1-1-1.1c-0.4,0-0.8,0.2-1.1,0.4l-0.3-0.4c0.3-0.3,0.9-0.5,1.6-0.5
			c0.7,0,1.4,0.4,1.4,1.3v1.7c0,0.3,0,0.6,0.1,0.8h-0.5c0-0.2,0-0.4,0-0.6h0c-0.3,0.5-0.7,0.7-1.3,0.7c-0.7,0-1.3-0.4-1.3-1.1
			c0-1.2,1.4-1.3,2.3-1.3H278.8z M278.5,275.5c-0.5,0-1.7,0-1.7,0.8c0,0.5,0.5,0.7,0.9,0.7c0.8,0,1.1-0.5,1.1-1.2v-0.3H278.5z"/>
	</g>
	<rect x="213.3" y="268.8" class="st11" width="11" height="11"/>
	<g>
		<circle class="st12" cx="31.2" cy="320.6" r="5.2"/>
		<g>
			<path d="M41.3,318.9h1.3c0.9,0,1.4,0.4,1.4,1.2c0,0.8-0.5,1.2-1.4,1.2h-0.8v2h-0.4V318.9z M41.7,320.8h0.7c0.8,0,1.1-0.3,1.1-0.8
				s-0.3-0.8-1.1-0.8h-0.7V320.8z"/>
			<path d="M46.5,321.5L46.5,321.5c0-0.6-0.2-0.8-0.7-0.8c-0.3,0-0.6,0.1-0.9,0.3l-0.2-0.3c0.3-0.3,0.7-0.4,1.2-0.4c0.6,0,1,0.3,1,1
				v1.3c0,0.2,0,0.5,0,0.6h-0.4c0-0.1,0-0.3,0-0.5h0c-0.2,0.4-0.6,0.5-1,0.5c-0.5,0-1-0.3-1-0.8c0-0.9,1.1-1,1.8-1H46.5z
				 M46.3,321.8c-0.4,0-1.3,0-1.3,0.6c0,0.4,0.3,0.5,0.7,0.5c0.6,0,0.9-0.4,0.9-0.9v-0.2H46.3z"/>
			<path d="M49.4,321c-0.1-0.2-0.3-0.4-0.6-0.4c-0.3,0-0.6,0.1-0.6,0.4c0,0.3,0.2,0.4,0.6,0.5l0.4,0.1c0.4,0.1,0.7,0.4,0.7,0.8
				c0,0.6-0.6,0.9-1.1,0.9c-0.4,0-0.8-0.2-1.1-0.6l0.3-0.2c0.2,0.3,0.4,0.4,0.8,0.4c0.3,0,0.7-0.1,0.7-0.5c0-0.3-0.2-0.4-0.5-0.5
				l-0.4-0.1c-0.2,0-0.7-0.2-0.7-0.8c0-0.6,0.5-0.9,1.1-0.9c0.4,0,0.8,0.1,1,0.5L49.4,321z"/>
			<path d="M51.9,320.7h-0.8v1.7c0,0.4,0.2,0.5,0.4,0.5c0.1,0,0.3,0,0.4-0.1l0,0.4c-0.1,0.1-0.3,0.1-0.5,0.1c-0.3,0-0.7-0.1-0.7-0.8
				v-1.8h-0.6v-0.4h0.6v-0.8h0.4v0.8h0.8V320.7z"/>
			<path d="M52.8,321.9c0,0.6,0.5,1,1.1,1c0.4,0,0.8-0.2,0.9-0.5l0.3,0.3c-0.3,0.4-0.8,0.6-1.2,0.6c-0.9,0-1.5-0.6-1.5-1.5
				c0-0.9,0.6-1.5,1.4-1.5c0.9,0,1.4,0.7,1.4,1.4v0.2H52.8z M54.7,321.6c0-0.5-0.3-0.9-0.9-0.9c-0.5,0-1,0.4-1,0.9H54.7z"/>
			<path d="M58.7,322.7l0.9-2.4H60l-1.4,3.6c-0.2,0.4-0.4,0.7-0.9,0.7c-0.1,0-0.3,0-0.4,0l0-0.4c0.1,0,0.2,0.1,0.3,0.1
				c0.3,0,0.4-0.2,0.6-0.5l0.2-0.6l-1.2-2.9h0.5L58.7,322.7z"/>
			<path d="M61.9,323.3c-0.9,0-1.5-0.6-1.5-1.5c0-0.9,0.6-1.5,1.5-1.5c0.9,0,1.5,0.6,1.5,1.5C63.5,322.6,62.8,323.3,61.9,323.3z
				 M61.9,320.6c-0.7,0-1.1,0.5-1.1,1.1c0,0.6,0.4,1.1,1.1,1.1c0.7,0,1.1-0.5,1.1-1.1C63,321.1,62.6,320.6,61.9,320.6z"/>
			<path d="M66.3,323.2c0-0.2,0-0.3,0-0.5h0c-0.2,0.3-0.6,0.5-1,0.5c-0.7,0-1.1-0.4-1.1-1.1v-1.8h0.4v1.6c0,0.6,0.2,1,0.8,1
				c0.1,0,0.9-0.1,0.9-1.1v-1.5h0.4v2.2c0,0.2,0,0.4,0,0.6H66.3z"/>
			<path d="M67.6,321.2c0-0.3,0-0.5,0-0.9H68v0.5h0c0.1-0.3,0.4-0.6,0.9-0.6c0.1,0,0.2,0,0.3,0l-0.1,0.4c0,0-0.1,0-0.2,0
				c-0.6,0-0.9,0.5-0.9,0.9v1.6h-0.4V321.2z"/>
			<path d="M74.2,323.2h-0.4v-0.5h0c-0.3,0.4-0.7,0.6-1.1,0.6c-0.9,0-1.5-0.6-1.5-1.5c0-0.9,0.6-1.5,1.5-1.5c0.4,0,0.9,0.2,1.1,0.6
				h0v-2.2h0.4V323.2z M72.7,322.9c0.7,0,1.1-0.5,1.1-1.1c0-0.6-0.5-1.1-1.1-1.1c-0.7,0-1.1,0.5-1.1,1.1
				C71.6,322.4,72,322.9,72.7,322.9z"/>
			<path d="M75.4,321.9c0,0.6,0.5,1,1.1,1c0.4,0,0.8-0.2,0.9-0.5l0.3,0.3c-0.3,0.4-0.8,0.6-1.2,0.6c-0.9,0-1.5-0.6-1.5-1.5
				c0-0.9,0.6-1.5,1.4-1.5c0.9,0,1.4,0.7,1.4,1.4v0.2H75.4z M77.3,321.6c0-0.5-0.3-0.9-0.9-0.9c-0.5,0-1,0.4-1,0.9H77.3z"/>
			<path d="M80,321c-0.1-0.2-0.3-0.4-0.6-0.4c-0.3,0-0.6,0.1-0.6,0.4c0,0.3,0.2,0.4,0.6,0.5l0.4,0.1c0.4,0.1,0.7,0.4,0.7,0.8
				c0,0.6-0.6,0.9-1.1,0.9c-0.4,0-0.8-0.2-1.1-0.6l0.3-0.2c0.2,0.3,0.4,0.4,0.8,0.4c0.3,0,0.7-0.1,0.7-0.5c0-0.3-0.2-0.4-0.5-0.5
				l-0.4-0.1c-0.2,0-0.7-0.2-0.7-0.8c0-0.6,0.5-0.9,1.1-0.9c0.4,0,0.8,0.1,1,0.5L80,321z"/>
			<path d="M81.4,319.5c-0.1,0-0.3-0.1-0.3-0.3s0.1-0.3,0.3-0.3c0.1,0,0.3,0.1,0.3,0.3S81.5,319.5,81.4,319.5z M81.6,323.2h-0.4
				v-2.9h0.4V323.2z"/>
			<path d="M82.8,323.8c0.2,0.3,0.6,0.5,1.1,0.5c0.8,0,1.1-0.5,1.1-1.1v-0.5h0c-0.3,0.4-0.7,0.5-1.1,0.5c-0.8,0-1.5-0.6-1.5-1.5
				c0-0.8,0.6-1.5,1.5-1.5c0.3,0,0.8,0.1,1.1,0.6h0v-0.5h0.4v2.8c0,0.6-0.3,1.5-1.5,1.5c-0.6,0-1-0.2-1.4-0.6L82.8,323.8z
				 M83.9,322.8c0.6,0,1.1-0.4,1.1-1.1c0-0.6-0.4-1.1-1.1-1.1c-0.6,0-1.1,0.5-1.1,1.1C82.9,322.3,83.3,322.8,83.9,322.8z"/>
			<path d="M86.7,320.3c0,0.2,0,0.3,0,0.5h0c0.2-0.3,0.6-0.5,1-0.5c0.7,0,1.1,0.4,1.1,1.1v1.8h-0.4v-1.6c0-0.6-0.2-1-0.8-1
				c-0.1,0-0.9,0.1-0.9,1.1v1.5h-0.4V321c0-0.2,0-0.4,0-0.6H86.7z"/>
			<path d="M92.8,323.3c-0.9,0-1.5-0.6-1.5-1.5c0-0.9,0.6-1.5,1.5-1.5c0.9,0,1.5,0.6,1.5,1.5C94.3,322.6,93.7,323.3,92.8,323.3z
				 M92.8,320.6c-0.7,0-1.1,0.5-1.1,1.1c0,0.6,0.4,1.1,1.1,1.1c0.7,0,1.1-0.5,1.1-1.1C93.9,321.1,93.5,320.6,92.8,320.6z"/>
			<path d="M95.5,320.3c0,0.2,0,0.3,0,0.5h0c0.2-0.3,0.6-0.5,1-0.5c0.7,0,1.1,0.4,1.1,1.1v1.8h-0.4v-1.6c0-0.6-0.2-1-0.8-1
				c-0.1,0-0.9,0.1-0.9,1.1v1.5h-0.4V321c0-0.2,0-0.4,0-0.6H95.5z"/>
			<path d="M100,320.7h-0.8v1.7c0,0.4,0.2,0.5,0.4,0.5c0.1,0,0.3,0,0.4-0.1l0,0.4c-0.1,0.1-0.3,0.1-0.5,0.1c-0.3,0-0.7-0.1-0.7-0.8
				v-1.8h-0.6v-0.4h0.6v-0.8h0.4v0.8h0.8V320.7z"/>
			<path d="M101.9,323.3c-0.9,0-1.5-0.6-1.5-1.5c0-0.9,0.6-1.5,1.5-1.5c0.9,0,1.5,0.6,1.5,1.5C103.4,322.6,102.8,323.3,101.9,323.3z
				 M101.9,320.6c-0.7,0-1.1,0.5-1.1,1.1c0,0.6,0.4,1.1,1.1,1.1c0.7,0,1.1-0.5,1.1-1.1C103,321.1,102.6,320.6,101.9,320.6z"/>
			<path d="M42.6,331.4h-0.8v1.7c0,0.4,0.2,0.5,0.4,0.5c0.1,0,0.3,0,0.4-0.1l0,0.4c-0.1,0.1-0.3,0.1-0.5,0.1c-0.3,0-0.7-0.1-0.7-0.8
				v-1.8h-0.6V331h0.6v-0.8h0.4v0.8h0.8V331.4z"/>
			<path d="M43.2,329.2h0.4v2.2h0c0.2-0.3,0.6-0.5,1-0.5c0.7,0,1.1,0.4,1.1,1.1v1.8h-0.4v-1.6c0-0.6-0.2-1-0.8-1
				c-0.1,0-0.9,0.1-0.9,1.1v1.5h-0.4V329.2z"/>
			<path d="M46.9,332.5c0,0.6,0.5,1,1.1,1c0.4,0,0.8-0.2,0.9-0.5l0.3,0.3c-0.3,0.4-0.8,0.6-1.2,0.6c-0.9,0-1.5-0.6-1.5-1.5
				c0-0.9,0.6-1.5,1.4-1.5c0.9,0,1.4,0.7,1.4,1.4v0.2H46.9z M48.8,332.2c0-0.5-0.3-0.9-0.9-0.9c-0.5,0-1,0.4-1,0.9H48.8z"/>
			<path d="M53.2,329.5h0.5l1.9,4.3h-0.7l-0.4-1.1h-2.1l-0.4,1.1h-0.7L53.2,329.5z M54.2,332.3l-0.8-2h0l-0.8,2H54.2z"/>
			<path d="M56,331h0.6v0.4h0c0.1-0.3,0.5-0.5,0.9-0.5c0.1,0,0.2,0,0.2,0l0,0.6c-0.1,0-0.2,0-0.3,0c-0.5,0-0.8,0.3-0.8,0.9v1.5H56
				V331z"/>
			<path d="M59.8,331.4H59v1.3c0,0.3,0,0.7,0.4,0.7c0.1,0,0.3,0,0.4-0.1v0.5c-0.1,0.1-0.4,0.1-0.5,0.1c-0.9,0-0.9-0.5-0.9-1v-1.5
				h-0.6V331h0.6v-0.8H59v0.8h0.8V331.4z"/>
			<path d="M60.2,331h0.6l0.7,2.2h0l0.7-2.2h0.6l0.7,2.2h0l0.6-2.2h0.6l-0.9,2.9h-0.6l-0.8-2.2h0l-0.7,2.2h-0.6L60.2,331z"/>
			<path d="M66.6,330.9c0.9,0,1.5,0.7,1.5,1.5c0,0.8-0.7,1.5-1.5,1.5s-1.5-0.7-1.5-1.5C65,331.6,65.7,330.9,66.6,330.9z M66.6,333.4
				c0.6,0,1-0.4,1-1s-0.4-1-1-1s-1,0.4-1,1S66,333.4,66.6,333.4z"/>
			<path d="M68.8,331h0.6v0.4h0c0.1-0.3,0.5-0.5,0.9-0.5c0.1,0,0.2,0,0.2,0l0,0.6c-0.1,0-0.2,0-0.3,0c-0.5,0-0.8,0.3-0.8,0.9v1.5
				h-0.6V331z"/>
			<path d="M71.1,329.2h0.6v3l1.3-1.3h0.8l-1.4,1.3l1.5,1.6H73l-1.3-1.5v1.5h-0.6V329.2z"/>
			<path d="M76.5,333.9h-0.4v-4.6h0.4V333.9z"/>
			<path d="M79.3,332.1L79.3,332.1c0-0.6-0.2-0.8-0.7-0.8c-0.3,0-0.6,0.1-0.9,0.3l-0.2-0.3c0.3-0.3,0.7-0.4,1.2-0.4c0.6,0,1,0.3,1,1
				v1.3c0,0.2,0,0.5,0,0.6h-0.4c0-0.1,0-0.3,0-0.5h0c-0.2,0.4-0.6,0.5-1,0.5c-0.5,0-1-0.3-1-0.8c0-0.9,1.1-1,1.8-1H79.3z
				 M79.1,332.4c-0.4,0-1.3,0-1.3,0.6c0,0.4,0.4,0.5,0.7,0.5c0.6,0,0.9-0.4,0.9-0.9v-0.2H79.1z"/>
			<path d="M81.7,333.4l0.9-2.4h0.5l-1.4,3.6c-0.2,0.4-0.4,0.7-0.9,0.7c-0.1,0-0.3,0-0.4,0l0-0.4c0.1,0,0.2,0.1,0.3,0.1
				c0.3,0,0.4-0.2,0.6-0.5l0.2-0.6l-1.2-2.9h0.5L81.7,333.4z"/>
			<path d="M83.9,332.5c0,0.6,0.5,1,1.1,1c0.4,0,0.8-0.2,0.9-0.5l0.3,0.3c-0.3,0.4-0.8,0.6-1.2,0.6c-0.9,0-1.5-0.6-1.5-1.5
				c0-0.9,0.6-1.5,1.4-1.5c0.9,0,1.4,0.7,1.4,1.4v0.2H83.9z M85.8,332.2c0-0.5-0.3-0.9-0.9-0.9c-0.5,0-1,0.4-1,0.9H85.8z"/>
			<path d="M87.1,331.9c0-0.3,0-0.5,0-0.9h0.4v0.5h0c0.1-0.3,0.4-0.6,0.9-0.6c0.1,0,0.2,0,0.3,0l-0.1,0.4c0,0-0.1,0-0.2,0
				c-0.6,0-0.9,0.5-0.9,0.9v1.6h-0.4V331.9z"/>
			<path d="M89.5,333.9c-0.2,0-0.3-0.2-0.3-0.3c0-0.2,0.1-0.3,0.3-0.3s0.3,0.2,0.3,0.3C89.8,333.7,89.7,333.9,89.5,333.9z"/>
		</g>
		<g>
			<g>
				<path d="M31.6,322.9h-0.4v-3.8l-0.8,0.7l-0.3-0.3l1.1-0.9h0.4V322.9z"/>
			</g>
		</g>
	</g>
	<g>
		<circle class="st12" cx="144.1" cy="320.6" r="5.2"/>
		<g>
			<path d="M154.6,323.2h-0.4v-4.3h1.3c0.9,0,1.4,0.4,1.4,1.2c0,0.6-0.4,1.1-1.1,1.1l1.3,2.1h-0.5l-1.2-2h-0.7V323.2z M154.6,320.8
				h0.8c0.8,0,1.1-0.3,1.1-0.8s-0.3-0.8-1.1-0.8h-0.8V320.8z"/>
			<path d="M157.9,321.9c0,0.6,0.5,1,1.1,1c0.4,0,0.8-0.2,0.9-0.5l0.3,0.3c-0.3,0.4-0.8,0.6-1.2,0.6c-0.9,0-1.5-0.6-1.5-1.5
				c0-0.9,0.6-1.5,1.4-1.5c0.9,0,1.4,0.7,1.4,1.4v0.2H157.9z M159.9,321.6c0-0.5-0.3-0.9-0.9-0.9c-0.5,0-1,0.4-1,0.9H159.9z"/>
			<path d="M161,320.3h0.4v0.5h0c0.3-0.4,0.7-0.6,1.1-0.6c0.9,0,1.5,0.6,1.5,1.5c0,0.9-0.6,1.5-1.5,1.5c-0.4,0-0.9-0.2-1.1-0.6h0
				v2.2H161V320.3z M162.6,320.6c-0.7,0-1.1,0.5-1.1,1.1c0,0.6,0.5,1.1,1.1,1.1c0.7,0,1.1-0.5,1.1-1.1
				C163.7,321.1,163.2,320.6,162.6,320.6z"/>
			<path d="M166.2,323.3c-0.9,0-1.5-0.6-1.5-1.5c0-0.9,0.6-1.5,1.5-1.5c0.9,0,1.5,0.6,1.5,1.5C167.7,322.6,167.1,323.3,166.2,323.3z
				 M166.2,320.6c-0.7,0-1.1,0.5-1.1,1.1c0,0.6,0.4,1.1,1.1,1.1c0.7,0,1.1-0.5,1.1-1.1C167.2,321.1,166.8,320.6,166.2,320.6z"/>
			<path d="M169.9,321c-0.1-0.2-0.3-0.4-0.6-0.4c-0.3,0-0.6,0.1-0.6,0.4c0,0.3,0.2,0.4,0.6,0.5l0.4,0.1c0.4,0.1,0.7,0.4,0.7,0.8
				c0,0.6-0.6,0.9-1.1,0.9c-0.4,0-0.8-0.2-1.1-0.6l0.3-0.2c0.2,0.3,0.4,0.4,0.8,0.4c0.3,0,0.7-0.1,0.7-0.5c0-0.3-0.2-0.4-0.5-0.5
				l-0.4-0.1c-0.2,0-0.7-0.2-0.7-0.8c0-0.6,0.5-0.9,1.1-0.9c0.4,0,0.8,0.1,1,0.5L169.9,321z"/>
			<path d="M171.3,319.5c-0.1,0-0.3-0.1-0.3-0.3s0.1-0.3,0.3-0.3c0.1,0,0.3,0.1,0.3,0.3S171.5,319.5,171.3,319.5z M171.5,323.2h-0.4
				v-2.9h0.4V323.2z"/>
			<path d="M174,320.7h-0.8v1.7c0,0.4,0.2,0.5,0.4,0.5c0.1,0,0.3,0,0.4-0.1l0,0.4c-0.1,0.1-0.3,0.1-0.5,0.1c-0.3,0-0.7-0.1-0.7-0.8
				v-1.8h-0.6v-0.4h0.6v-0.8h0.4v0.8h0.8V320.7z"/>
			<path d="M174.8,319.5c-0.1,0-0.3-0.1-0.3-0.3s0.1-0.3,0.3-0.3c0.1,0,0.3,0.1,0.3,0.3S175,319.5,174.8,319.5z M175,323.2h-0.4
				v-2.9h0.4V323.2z"/>
			<path d="M177.4,323.3c-0.9,0-1.5-0.6-1.5-1.5c0-0.9,0.6-1.5,1.5-1.5c0.9,0,1.5,0.6,1.5,1.5C178.9,322.6,178.3,323.3,177.4,323.3z
				 M177.4,320.6c-0.7,0-1.1,0.5-1.1,1.1c0,0.6,0.4,1.1,1.1,1.1c0.7,0,1.1-0.5,1.1-1.1C178.5,321.1,178.1,320.6,177.4,320.6z"/>
			<path d="M180,320.3c0,0.2,0,0.3,0,0.5h0c0.2-0.3,0.6-0.5,1-0.5c0.7,0,1.1,0.4,1.1,1.1v1.8h-0.4v-1.6c0-0.6-0.2-1-0.8-1
				c-0.1,0-0.9,0.1-0.9,1.1v1.5h-0.4V321c0-0.2,0-0.4,0-0.6H180z"/>
			<path d="M186.6,321.5L186.6,321.5c0-0.6-0.2-0.8-0.7-0.8c-0.3,0-0.6,0.1-0.9,0.3l-0.2-0.3c0.3-0.3,0.7-0.4,1.2-0.4
				c0.6,0,1,0.3,1,1v1.3c0,0.2,0,0.5,0,0.6h-0.4c0-0.1,0-0.3,0-0.5h0c-0.2,0.4-0.6,0.5-1,0.5c-0.5,0-1-0.3-1-0.8c0-0.9,1.1-1,1.8-1
				H186.6z M186.4,321.8c-0.4,0-1.3,0-1.3,0.6c0,0.4,0.3,0.5,0.7,0.5c0.6,0,0.9-0.4,0.9-0.9v-0.2H186.4z"/>
			<path d="M188.3,320.3c0,0.2,0,0.3,0,0.5h0c0.2-0.3,0.6-0.5,1-0.5c0.7,0,1.1,0.4,1.1,1.1v1.8H190v-1.6c0-0.6-0.2-1-0.8-1
				c-0.1,0-0.9,0.1-0.9,1.1v1.5h-0.4V321c0-0.2,0-0.4,0-0.6H188.3z"/>
			<path d="M194.2,323.2h-0.4v-0.5h0c-0.3,0.4-0.7,0.6-1.1,0.6c-0.9,0-1.5-0.6-1.5-1.5c0-0.9,0.6-1.5,1.5-1.5c0.4,0,0.9,0.2,1.1,0.6
				h0v-2.2h0.4V323.2z M192.7,322.9c0.7,0,1.1-0.5,1.1-1.1c0-0.6-0.5-1.1-1.1-1.1c-0.7,0-1.1,0.5-1.1,1.1
				C191.6,322.4,192,322.9,192.7,322.9z"/>
			<path d="M198.3,321c-0.1-0.2-0.3-0.4-0.6-0.4c-0.3,0-0.6,0.1-0.6,0.4c0,0.3,0.2,0.4,0.6,0.5l0.4,0.1c0.4,0.1,0.7,0.4,0.7,0.8
				c0,0.6-0.6,0.9-1.1,0.9c-0.4,0-0.8-0.2-1.1-0.6l0.3-0.2c0.2,0.3,0.4,0.4,0.8,0.4c0.3,0,0.7-0.1,0.7-0.5c0-0.3-0.2-0.4-0.5-0.5
				l-0.4-0.1c-0.2,0-0.7-0.2-0.7-0.8c0-0.6,0.5-0.9,1.1-0.9c0.4,0,0.8,0.1,1,0.5L198.3,321z"/>
			<path d="M201.5,321c-0.1-0.2-0.4-0.4-0.7-0.4c-0.7,0-1.1,0.5-1.1,1.1c0,0.7,0.4,1.2,1.1,1.1c0.3,0,0.6-0.2,0.7-0.4l0.3,0.3
				c-0.3,0.3-0.7,0.5-1,0.5c-0.9,0-1.5-0.6-1.5-1.5c0-0.9,0.6-1.5,1.5-1.5c0.4,0,0.8,0.2,1,0.5L201.5,321z"/>
			<path d="M204.2,321.5L204.2,321.5c0-0.6-0.2-0.8-0.7-0.8c-0.3,0-0.6,0.1-0.9,0.3l-0.2-0.3c0.3-0.3,0.7-0.4,1.2-0.4
				c0.6,0,1,0.3,1,1v1.3c0,0.2,0,0.5,0,0.6h-0.4c0-0.1,0-0.3,0-0.5h0c-0.2,0.4-0.6,0.5-1,0.5c-0.5,0-1-0.3-1-0.8c0-0.9,1.1-1,1.8-1
				H204.2z M204,321.8c-0.4,0-1.3,0-1.3,0.6c0,0.4,0.3,0.5,0.7,0.5c0.6,0,0.9-0.4,0.9-0.9v-0.2H204z"/>
			<path d="M206,323.2h-0.4v-4.6h0.4V323.2z"/>
			<path d="M207.3,321.9c0,0.6,0.5,1,1.1,1c0.4,0,0.8-0.2,0.9-0.5l0.3,0.3c-0.3,0.4-0.8,0.6-1.2,0.6c-0.9,0-1.5-0.6-1.5-1.5
				c0-0.9,0.6-1.5,1.4-1.5c0.9,0,1.4,0.7,1.4,1.4v0.2H207.3z M209.3,321.6c0-0.5-0.3-0.9-0.9-0.9c-0.5,0-1,0.4-1,0.9H209.3z"/>
			<path d="M213.2,322.7l0.9-2.4h0.5l-1.4,3.6c-0.2,0.4-0.4,0.7-0.9,0.7c-0.1,0-0.3,0-0.4,0l0-0.4c0.1,0,0.2,0.1,0.3,0.1
				c0.3,0,0.4-0.2,0.6-0.5l0.2-0.6l-1.2-2.9h0.5L213.2,322.7z"/>
			<path d="M216.5,323.3c-0.9,0-1.5-0.6-1.5-1.5c0-0.9,0.6-1.5,1.5-1.5c0.9,0,1.5,0.6,1.5,1.5C218,322.6,217.4,323.3,216.5,323.3z
				 M216.5,320.6c-0.7,0-1.1,0.5-1.1,1.1c0,0.6,0.4,1.1,1.1,1.1c0.7,0,1.1-0.5,1.1-1.1C217.5,321.1,217.1,320.6,216.5,320.6z"/>
			<path d="M220.8,323.2c0-0.2,0-0.3,0-0.5h0c-0.2,0.3-0.6,0.5-1,0.5c-0.7,0-1.1-0.4-1.1-1.1v-1.8h0.4v1.6c0,0.6,0.2,1,0.8,1
				c0.1,0,0.9-0.1,0.9-1.1v-1.5h0.4v2.2c0,0.2,0,0.4,0,0.6H220.8z"/>
			<path d="M222.2,321.2c0-0.3,0-0.5,0-0.9h0.4v0.5h0c0.1-0.3,0.4-0.6,0.9-0.6c0.1,0,0.2,0,0.3,0l-0.1,0.4c0,0-0.1,0-0.2,0
				c-0.6,0-0.9,0.5-0.9,0.9v1.6h-0.4V321.2z"/>
			<path d="M156.9,333.9h-0.4v-0.5h0c-0.3,0.4-0.7,0.6-1.1,0.6c-0.9,0-1.5-0.6-1.5-1.5c0-0.9,0.6-1.5,1.5-1.5c0.4,0,0.9,0.2,1.1,0.6
				h0v-2.2h0.4V333.9z M155.3,333.6c0.7,0,1.1-0.5,1.1-1.1c0-0.6-0.5-1.1-1.1-1.1c-0.7,0-1.1,0.5-1.1,1.1
				C154.2,333.1,154.7,333.6,155.3,333.6z"/>
			<path d="M158,332.5c0,0.6,0.5,1,1.1,1c0.4,0,0.8-0.2,0.9-0.5l0.3,0.3c-0.3,0.4-0.8,0.6-1.2,0.6c-0.9,0-1.5-0.6-1.5-1.5
				c0-0.9,0.6-1.5,1.4-1.5c0.9,0,1.4,0.7,1.4,1.4v0.2H158z M160,332.2c0-0.5-0.3-0.9-0.9-0.9c-0.5,0-1,0.4-1,0.9H160z"/>
			<path d="M162.7,331.7c-0.1-0.2-0.3-0.4-0.6-0.4c-0.3,0-0.6,0.1-0.6,0.4c0,0.3,0.2,0.4,0.6,0.5l0.4,0.1c0.4,0.1,0.7,0.4,0.7,0.8
				c0,0.6-0.6,0.9-1.1,0.9c-0.4,0-0.8-0.2-1.1-0.6l0.3-0.2c0.2,0.3,0.4,0.4,0.8,0.4c0.3,0,0.7-0.1,0.7-0.5c0-0.3-0.2-0.4-0.5-0.5
				l-0.4-0.1c-0.2,0-0.7-0.2-0.7-0.8c0-0.6,0.5-0.9,1.1-0.9c0.4,0,0.8,0.1,1,0.5L162.7,331.7z"/>
			<path d="M164.1,330.2c-0.1,0-0.3-0.1-0.3-0.3s0.1-0.3,0.3-0.3c0.1,0,0.3,0.1,0.3,0.3S164.2,330.2,164.1,330.2z M164.3,333.9h-0.4
				V331h0.4V333.9z"/>
			<path d="M165.5,334.4c0.2,0.3,0.6,0.5,1.1,0.5c0.8,0,1.1-0.5,1.1-1.1v-0.5h0c-0.3,0.4-0.7,0.5-1.1,0.5c-0.8,0-1.5-0.6-1.5-1.5
				c0-0.8,0.6-1.5,1.5-1.5c0.3,0,0.8,0.1,1.1,0.6h0V331h0.4v2.8c0,0.6-0.3,1.5-1.5,1.5c-0.6,0-1-0.2-1.4-0.6L165.5,334.4z
				 M166.6,333.5c0.6,0,1.1-0.4,1.1-1.1c0-0.6-0.4-1.1-1.1-1.1c-0.6,0-1.1,0.5-1.1,1.1C165.5,333,166,333.5,166.6,333.5z"/>
			<path d="M169.4,331c0,0.2,0,0.3,0,0.5h0c0.2-0.3,0.6-0.5,1-0.5c0.7,0,1.1,0.4,1.1,1.1v1.8H171v-1.6c0-0.6-0.2-1-0.8-1
				c-0.1,0-0.9,0.1-0.9,1.1v1.5H169v-2.2c0-0.2,0-0.4,0-0.6H169.4z"/>
			<path d="M175.9,332.1L175.9,332.1c0-0.6-0.2-0.8-0.7-0.8c-0.3,0-0.6,0.1-0.9,0.3l-0.2-0.3c0.3-0.3,0.7-0.4,1.2-0.4
				c0.6,0,1,0.3,1,1v1.3c0,0.2,0,0.5,0,0.6H176c0-0.1,0-0.3,0-0.5h0c-0.2,0.4-0.6,0.5-1,0.5c-0.5,0-1-0.3-1-0.8c0-0.9,1.1-1,1.8-1
				H175.9z M175.7,332.4c-0.4,0-1.3,0-1.3,0.6c0,0.4,0.4,0.5,0.7,0.5c0.6,0,0.9-0.4,0.9-0.9v-0.2H175.7z"/>
			<path d="M178.8,331.7c-0.1-0.2-0.3-0.4-0.6-0.4c-0.3,0-0.6,0.1-0.6,0.4c0,0.3,0.2,0.4,0.6,0.5l0.4,0.1c0.4,0.1,0.7,0.4,0.7,0.8
				c0,0.6-0.6,0.9-1.1,0.9c-0.4,0-0.8-0.2-1.1-0.6l0.3-0.2c0.2,0.3,0.4,0.4,0.8,0.4c0.3,0,0.7-0.1,0.7-0.5c0-0.3-0.2-0.4-0.5-0.5
				l-0.4-0.1c-0.2,0-0.7-0.2-0.7-0.8c0-0.6,0.5-0.9,1.1-0.9c0.4,0,0.8,0.1,1,0.5L178.8,331.7z"/>
			<path d="M182.7,333.4l0.9-2.4h0.5l-1.4,3.6c-0.2,0.4-0.4,0.7-0.9,0.7c-0.1,0-0.3,0-0.4,0l0-0.4c0.1,0,0.2,0.1,0.3,0.1
				c0.3,0,0.4-0.2,0.6-0.5l0.2-0.6l-1.2-2.9h0.5L182.7,333.4z"/>
			<path d="M185.9,333.9c-0.9,0-1.5-0.6-1.5-1.5c0-0.9,0.6-1.5,1.5-1.5c0.9,0,1.5,0.6,1.5,1.5C187.4,333.3,186.8,333.9,185.9,333.9z
				 M185.9,331.3c-0.7,0-1.1,0.5-1.1,1.1c0,0.6,0.4,1.1,1.1,1.1c0.7,0,1.1-0.5,1.1-1.1C187,331.8,186.6,331.3,185.9,331.3z"/>
			<path d="M190.3,333.9c0-0.2,0-0.3,0-0.5h0c-0.2,0.3-0.6,0.5-1,0.5c-0.7,0-1.1-0.4-1.1-1.1V331h0.4v1.6c0,0.6,0.2,1,0.8,1
				c0.1,0,0.9-0.1,0.9-1.1V331h0.4v2.2c0,0.2,0,0.4,0,0.6H190.3z"/>
			<path d="M193.8,333.9h-0.4v-4.6h0.4V333.9z"/>
			<path d="M195.1,330.2c-0.1,0-0.3-0.1-0.3-0.3s0.1-0.3,0.3-0.3s0.3,0.1,0.3,0.3S195.2,330.2,195.1,330.2z M195.3,333.9h-0.4V331
				h0.4V333.9z"/>
			<path d="M196.6,332.3l1.4-1.3h0.6l-1.4,1.3l1.6,1.6h-0.6L196.6,332.3v1.6h-0.4v-4.6h0.4V332.3z"/>
			<path d="M199.5,332.5c0,0.6,0.5,1,1.1,1c0.4,0,0.8-0.2,0.9-0.5l0.3,0.3c-0.3,0.4-0.8,0.6-1.2,0.6c-0.9,0-1.5-0.6-1.5-1.5
				c0-0.9,0.6-1.5,1.4-1.5c0.9,0,1.4,0.7,1.4,1.4v0.2H199.5z M201.4,332.2c0-0.5-0.3-0.9-0.9-0.9c-0.5,0-1,0.4-1,0.9H201.4z"/>
			<path d="M203,333.9c-0.2,0-0.3-0.2-0.3-0.3c0-0.2,0.1-0.3,0.3-0.3c0.2,0,0.3,0.2,0.3,0.3C203.3,333.7,203.2,333.9,203,333.9z"/>
		</g>
		<g>
			<g>
				<path d="M145.4,322.9h-2.8v-0.5l1.7-1.8c0.3-0.3,0.6-0.6,0.6-1c0-0.5-0.4-0.8-0.8-0.8c-0.4,0-0.8,0.3-0.9,0.7l-0.5,0
					c0.1-0.6,0.6-1,1.3-1c0.7,0,1.3,0.4,1.3,1.1c0,0.7-0.4,1.1-0.9,1.5l-1.4,1.4h2.3V322.9z"/>
			</g>
		</g>
	</g>
	<g>
		<circle class="st12" cx="258" cy="320.6" r="5.2"/>
		<g>
			<path d="M270.1,323.3c-1.3,0-2.3-1-2.3-2.3c0-1.3,1-2.3,2.3-2.3c1.3,0,2.3,1,2.3,2.3C272.3,322.4,271.4,323.3,270.1,323.3z
				 M270.1,319.2c-1.1,0-1.8,0.9-1.8,1.9s0.7,1.9,1.8,1.9s1.8-0.9,1.8-1.9S271.2,319.2,270.1,319.2z"/>
			<path d="M275.1,323.2c0-0.2,0-0.3,0-0.5h0c-0.2,0.3-0.6,0.5-1,0.5c-0.7,0-1.1-0.4-1.1-1.1v-1.8h0.4v1.6c0,0.6,0.2,1,0.8,1
				c0.1,0,0.9-0.1,0.9-1.1v-1.5h0.4v2.2c0,0.2,0,0.4,0,0.6H275.1z"/>
			<path d="M277.9,320.7h-0.8v1.7c0,0.4,0.2,0.5,0.4,0.5c0.1,0,0.3,0,0.4-0.1l0,0.4c-0.1,0.1-0.3,0.1-0.5,0.1
				c-0.3,0-0.7-0.1-0.7-0.8v-1.8h-0.6v-0.4h0.6v-0.8h0.4v0.8h0.8V320.7z"/>
			<path d="M279,323.2h-0.4v-4.6h0.4V323.2z"/>
			<path d="M280.3,319.5c-0.1,0-0.3-0.1-0.3-0.3s0.1-0.3,0.3-0.3c0.1,0,0.3,0.1,0.3,0.3S280.4,319.5,280.3,319.5z M280.5,323.2h-0.4
				v-2.9h0.4V323.2z"/>
			<path d="M281.8,320.3c0,0.2,0,0.3,0,0.5h0c0.2-0.3,0.6-0.5,1-0.5c0.7,0,1.1,0.4,1.1,1.1v1.8h-0.4v-1.6c0-0.6-0.2-1-0.8-1
				c-0.1,0-0.9,0.1-0.9,1.1v1.5h-0.4V321c0-0.2,0-0.4,0-0.6H281.8z"/>
			<path d="M285.1,321.9c0,0.6,0.5,1,1.1,1c0.4,0,0.8-0.2,0.9-0.5l0.3,0.3c-0.3,0.4-0.8,0.6-1.2,0.6c-0.9,0-1.5-0.6-1.5-1.5
				c0-0.9,0.6-1.5,1.4-1.5c0.9,0,1.4,0.7,1.4,1.4v0.2H285.1z M287.1,321.6c0-0.5-0.3-0.9-0.9-0.9c-0.5,0-1,0.4-1,0.9H287.1z"/>
			<path d="M291.3,323.3c-0.9,0-1.5-0.6-1.5-1.5c0-0.9,0.6-1.5,1.5-1.5c0.9,0,1.5,0.6,1.5,1.5C292.9,322.6,292.2,323.3,291.3,323.3z
				 M291.3,320.6c-0.7,0-1.1,0.5-1.1,1.1c0,0.6,0.4,1.1,1.1,1.1c0.7,0,1.1-0.5,1.1-1.1C292.4,321.1,292,320.6,291.3,320.6z"/>
			<path d="M293.6,321.2c0-0.3,0-0.5,0-0.9h0.4v0.5h0c0.1-0.3,0.4-0.6,0.9-0.6c0.1,0,0.2,0,0.3,0l-0.1,0.4c0,0-0.1,0-0.2,0
				c-0.6,0-0.9,0.5-0.9,0.9v1.6h-0.4V321.2z"/>
			<path d="M297.4,321.2c0-0.3,0-0.5,0-0.9h0.4v0.5h0c0.1-0.3,0.4-0.6,0.9-0.6c0.1,0,0.2,0,0.3,0l-0.1,0.4c0,0-0.1,0-0.2,0
				c-0.6,0-0.9,0.5-0.9,0.9v1.6h-0.4V321.2z"/>
			<path d="M301.2,321.5L301.2,321.5c0-0.6-0.2-0.8-0.7-0.8c-0.3,0-0.6,0.1-0.9,0.3l-0.2-0.3c0.3-0.3,0.7-0.4,1.2-0.4
				c0.6,0,1,0.3,1,1v1.3c0,0.2,0,0.5,0,0.6h-0.4c0-0.1,0-0.3,0-0.5h0c-0.2,0.4-0.6,0.5-1,0.5c-0.5,0-1-0.3-1-0.8c0-0.9,1.1-1,1.8-1
				H301.2z M301,321.8c-0.4,0-1.3,0-1.3,0.6c0,0.4,0.3,0.5,0.7,0.5c0.6,0,0.9-0.4,0.9-0.9v-0.2H301z"/>
			<path d="M304.1,321c-0.1-0.2-0.3-0.4-0.6-0.4c-0.3,0-0.6,0.1-0.6,0.4c0,0.3,0.2,0.4,0.6,0.5l0.4,0.1c0.4,0.1,0.7,0.4,0.7,0.8
				c0,0.6-0.6,0.9-1.1,0.9c-0.4,0-0.8-0.2-1.1-0.6l0.3-0.2c0.2,0.3,0.4,0.4,0.8,0.4c0.3,0,0.7-0.1,0.7-0.5c0-0.3-0.2-0.4-0.5-0.5
				l-0.4-0.1c-0.2,0-0.7-0.2-0.7-0.8c0-0.6,0.5-0.9,1.1-0.9c0.4,0,0.8,0.1,1,0.5L304.1,321z"/>
			<path d="M306.6,320.7h-0.8v1.7c0,0.4,0.2,0.5,0.4,0.5c0.1,0,0.3,0,0.4-0.1l0,0.4c-0.1,0.1-0.3,0.1-0.5,0.1
				c-0.3,0-0.7-0.1-0.7-0.8v-1.8h-0.6v-0.4h0.6v-0.8h0.4v0.8h0.8V320.7z"/>
			<path d="M307.5,321.9c0,0.6,0.5,1,1.1,1c0.4,0,0.8-0.2,0.9-0.5l0.3,0.3c-0.3,0.4-0.8,0.6-1.2,0.6c-0.9,0-1.5-0.6-1.5-1.5
				c0-0.9,0.6-1.5,1.4-1.5c0.9,0,1.4,0.7,1.4,1.4v0.2H307.5z M309.4,321.6c0-0.5-0.3-0.9-0.9-0.9c-0.5,0-1,0.4-1,0.9H309.4z"/>
			<path d="M310.6,321.2c0-0.3,0-0.5,0-0.9h0.4v0.5h0c0.1-0.3,0.4-0.6,0.9-0.6c0.1,0,0.2,0,0.3,0l-0.1,0.4c0,0-0.1,0-0.2,0
				c-0.6,0-0.9,0.5-0.9,0.9v1.6h-0.4V321.2z"/>
			<path d="M312.9,319.5c-0.1,0-0.3-0.1-0.3-0.3s0.1-0.3,0.3-0.3s0.3,0.1,0.3,0.3S313.1,319.5,312.9,319.5z M313.1,323.2h-0.4v-2.9
				h0.4V323.2z"/>
			<path d="M316.1,320.6l-1.7,2.2h1.7v0.4h-2.3v-0.3l1.7-2.2h-1.6v-0.4h2.2V320.6z"/>
			<path d="M317,321.9c0,0.6,0.5,1,1.1,1c0.4,0,0.8-0.2,0.9-0.5l0.3,0.3c-0.3,0.4-0.8,0.6-1.2,0.6c-0.9,0-1.5-0.6-1.5-1.5
				c0-0.9,0.6-1.5,1.4-1.5c0.9,0,1.4,0.7,1.4,1.4v0.2H317z M319,321.6c0-0.5-0.3-0.9-0.9-0.9c-0.5,0-1,0.4-1,0.9H319z"/>
			<path d="M322.9,322.7l0.9-2.4h0.5l-1.4,3.6c-0.2,0.4-0.4,0.7-0.9,0.7c-0.1,0-0.3,0-0.4,0l0-0.4c0.1,0,0.2,0.1,0.3,0.1
				c0.3,0,0.4-0.2,0.6-0.5l0.2-0.6l-1.2-2.9h0.5L322.9,322.7z"/>
			<path d="M326.2,323.3c-0.9,0-1.5-0.6-1.5-1.5c0-0.9,0.6-1.5,1.5-1.5c0.9,0,1.5,0.6,1.5,1.5C327.7,322.6,327.1,323.3,326.2,323.3z
				 M326.2,320.6c-0.7,0-1.1,0.5-1.1,1.1c0,0.6,0.4,1.1,1.1,1.1c0.7,0,1.1-0.5,1.1-1.1C327.3,321.1,326.8,320.6,326.2,320.6z"/>
			<path d="M330.5,323.2c0-0.2,0-0.3,0-0.5h0c-0.2,0.3-0.6,0.5-1,0.5c-0.7,0-1.1-0.4-1.1-1.1v-1.8h0.4v1.6c0,0.6,0.2,1,0.8,1
				c0.1,0,0.9-0.1,0.9-1.1v-1.5h0.4v2.2c0,0.2,0,0.4,0,0.6H330.5z"/>
			<path d="M331.9,321.2c0-0.3,0-0.5,0-0.9h0.4v0.5h0c0.1-0.3,0.4-0.6,0.9-0.6c0.1,0,0.2,0,0.3,0l-0.1,0.4c0,0-0.1,0-0.2,0
				c-0.6,0-0.9,0.5-0.9,0.9v1.6h-0.4V321.2z"/>
			<path d="M269.3,331.4h-0.7v2.5h-0.4v-2.5h-0.6V331h0.6v-0.8c0-0.8,0.4-1.1,1-1.1c0.1,0,0.2,0,0.3,0l-0.1,0.4c-0.1,0-0.2,0-0.3,0
				c-0.4,0-0.5,0.3-0.5,0.7v0.7h0.7V331.4z"/>
			<path d="M271.1,333.9c-0.9,0-1.5-0.6-1.5-1.5c0-0.9,0.6-1.5,1.5-1.5c0.9,0,1.5,0.6,1.5,1.5C272.7,333.3,272,333.9,271.1,333.9z
				 M271.1,331.3c-0.7,0-1.1,0.5-1.1,1.1c0,0.6,0.4,1.1,1.1,1.1c0.7,0,1.1-0.5,1.1-1.1C272.2,331.8,271.8,331.3,271.1,331.3z"/>
			<path d="M273.8,331c0,0.2,0,0.3,0,0.5h0c0.2-0.3,0.6-0.5,1-0.5c0.7,0,1.1,0.4,1.1,1.1v1.8h-0.4v-1.6c0-0.6-0.2-1-0.8-1
				c-0.1,0-0.9,0.1-0.9,1.1v1.5h-0.4v-2.2c0-0.2,0-0.4,0-0.6H273.8z"/>
			<path d="M278.3,331.4h-0.8v1.7c0,0.4,0.2,0.5,0.4,0.5c0.1,0,0.3,0,0.4-0.1l0,0.4c-0.1,0.1-0.3,0.1-0.5,0.1
				c-0.3,0-0.7-0.1-0.7-0.8v-1.8h-0.6V331h0.6v-0.8h0.4v0.8h0.8V331.4z"/>
			<path d="M280.4,331.7c-0.1-0.2-0.3-0.4-0.6-0.4c-0.3,0-0.6,0.1-0.6,0.4c0,0.3,0.2,0.4,0.6,0.5l0.4,0.1c0.4,0.1,0.7,0.4,0.7,0.8
				c0,0.6-0.6,0.9-1.1,0.9c-0.4,0-0.8-0.2-1.1-0.6l0.3-0.2c0.2,0.3,0.4,0.4,0.8,0.4c0.3,0,0.7-0.1,0.7-0.5c0-0.3-0.2-0.4-0.5-0.5
				l-0.4-0.1c-0.2,0-0.7-0.2-0.7-0.8c0-0.6,0.5-0.9,1.1-0.9c0.4,0,0.8,0.1,1,0.5L280.4,331.7z"/>
			<path d="M285,332.1L285,332.1c0-0.6-0.2-0.8-0.7-0.8c-0.3,0-0.6,0.1-0.9,0.3l-0.2-0.3c0.3-0.3,0.7-0.4,1.2-0.4c0.6,0,1,0.3,1,1
				v1.3c0,0.2,0,0.5,0,0.6H285c0-0.1,0-0.3,0-0.5h0c-0.2,0.4-0.6,0.5-1,0.5c-0.5,0-1-0.3-1-0.8c0-0.9,1.1-1,1.8-1H285z M284.8,332.4
				c-0.4,0-1.3,0-1.3,0.6c0,0.4,0.3,0.5,0.7,0.5c0.6,0,0.9-0.4,0.9-0.9v-0.2H284.8z"/>
			<path d="M286.7,331c0,0.2,0,0.3,0,0.5h0c0.2-0.3,0.6-0.5,1-0.5c0.7,0,1.1,0.4,1.1,1.1v1.8h-0.4v-1.6c0-0.6-0.2-1-0.8-1
				c-0.1,0-0.9,0.1-0.9,1.1v1.5h-0.4v-2.2c0-0.2,0-0.4,0-0.6H286.7z"/>
			<path d="M292.6,333.9h-0.4v-0.5h0c-0.3,0.4-0.7,0.6-1.1,0.6c-0.9,0-1.5-0.6-1.5-1.5c0-0.9,0.6-1.5,1.5-1.5c0.4,0,0.9,0.2,1.1,0.6
				h0v-2.2h0.4V333.9z M291.1,333.6c0.7,0,1.1-0.5,1.1-1.1c0-0.6-0.5-1.1-1.1-1.1c-0.7,0-1.1,0.5-1.1,1.1
				C290,333.1,290.4,333.6,291.1,333.6z"/>
			<path d="M297.3,331.7c-0.1-0.2-0.4-0.4-0.7-0.4c-0.7,0-1.1,0.5-1.1,1.1s0.4,1.2,1.1,1.1c0.3,0,0.6-0.2,0.7-0.4l0.3,0.3
				c-0.3,0.3-0.7,0.5-1,0.5c-0.9,0-1.5-0.6-1.5-1.5c0-0.9,0.6-1.5,1.5-1.5c0.4,0,0.8,0.2,1,0.5L297.3,331.7z"/>
			<path d="M298.6,333.9h-0.4v-4.6h0.4V333.9z"/>
			<path d="M299.9,330.2c-0.1,0-0.3-0.1-0.3-0.3s0.1-0.3,0.3-0.3c0.1,0,0.3,0.1,0.3,0.3S300.1,330.2,299.9,330.2z M300.1,333.9h-0.4
				V331h0.4V333.9z"/>
			<path d="M303.2,331.7c-0.1-0.2-0.4-0.4-0.7-0.4c-0.7,0-1.1,0.5-1.1,1.1s0.4,1.2,1.1,1.1c0.3,0,0.6-0.2,0.7-0.4l0.3,0.3
				c-0.3,0.3-0.7,0.5-1,0.5c-0.9,0-1.5-0.6-1.5-1.5c0-0.9,0.6-1.5,1.5-1.5c0.4,0,0.8,0.2,1,0.5L303.2,331.7z"/>
			<path d="M304.4,332.3l1.4-1.3h0.6l-1.4,1.3l1.6,1.6h-0.6L304.4,332.3v1.6H304v-4.6h0.4V332.3z"/>
			<path d="M308.9,333c0.2,0.3,0.6,0.5,0.9,0.5c0.4,0,0.9-0.2,0.9-0.7c0-1-2.1-0.4-2.1-2.1c0-0.5,0.4-1.2,1.5-1.2
				c0.5,0,0.9,0.1,1.3,0.5l-0.5,0.4c-0.1-0.2-0.4-0.4-0.8-0.4c-0.7,0-0.8,0.4-0.8,0.7c0,1.1,2.1,0.4,2.1,2c0,0.8-0.7,1.3-1.5,1.3
				c-0.6,0-1.1-0.2-1.4-0.6L308.9,333z"/>
			<path d="M312.1,331.3c0.3-0.3,0.7-0.4,1.2-0.4c0.9,0,1.2,0.5,1.2,1v1.5c0,0.2,0,0.4,0,0.5H314c0-0.1,0-0.3,0-0.4h0
				c-0.2,0.4-0.6,0.5-1,0.5c-0.5,0-1-0.3-1-0.9c0-0.7,0.7-1,1.6-1h0.4v-0.1c0-0.3-0.2-0.6-0.7-0.6c-0.4,0-0.6,0.2-0.8,0.3
				L312.1,331.3z M313.7,332.5c-0.5,0-1.2,0.1-1.2,0.6c0,0.3,0.2,0.5,0.6,0.5c0.6,0,0.8-0.5,0.8-0.8v-0.2H313.7z"/>
			<path d="M314.9,331h0.6l0.9,2.2l0.8-2.2h0.6l-1.1,2.9h-0.6L314.9,331z"/>
			<path d="M318.7,332.6c0,0.5,0.5,0.8,1,0.8c0.3,0,0.6-0.2,0.8-0.4l0.4,0.3c-0.3,0.4-0.7,0.6-1.3,0.6c-0.9,0-1.5-0.7-1.5-1.5
				c0-0.9,0.6-1.5,1.5-1.5c1,0,1.4,0.8,1.4,1.5v0.2H318.7z M320.5,332.2c0-0.5-0.3-0.8-0.8-0.8c-0.5,0-0.9,0.5-0.9,0.8H320.5z"/>
			<path d="M322.2,333.9c-0.2,0-0.3-0.2-0.3-0.3c0-0.2,0.1-0.3,0.3-0.3s0.3,0.2,0.3,0.3C322.5,333.7,322.4,333.9,322.2,333.9z"/>
		</g>
		<g>
			<g>
				<path d="M257.5,320.5h0.2c0.5,0,1-0.2,1-0.8c0-0.5-0.3-0.7-0.8-0.7c-0.4,0-0.7,0.2-0.8,0.5l-0.4-0.2c0.3-0.5,0.7-0.7,1.2-0.7
					c0.7,0,1.3,0.4,1.3,1.1c0,0.5-0.3,0.9-0.7,1l0,0c0.5,0.1,0.8,0.6,0.8,1.1c0,0.8-0.6,1.3-1.4,1.3c-0.6,0-1.1-0.3-1.4-0.9l0.5-0.1
					c0.1,0.4,0.4,0.6,0.9,0.6c0.5,0,0.9-0.3,0.9-0.9c0-0.7-0.5-0.9-1.1-0.9h-0.2V320.5z"/>
			</g>
		</g>
	</g>
	<g>
		<rect x="29.6" y="370.1" class="st13" width="75.4" height="11.7"/>
		<polygon class="st13" points="55.5,355 25.1,355 25.1,400.6 109.4,400.6 109.4,365.6 55.5,365.6 		"/>
		<line class="st13" x1="41.4" y1="370.1" x2="41.4" y2="381.7"/>
		<line class="st13" x1="53.3" y1="370.1" x2="53.3" y2="381.7"/>
		<path class="st13" d="M55.5,365.6"/>
		<polyline class="st13" points="55.5,355 109.4,355 109.4,365.6 		"/>
		<line class="st13" x1="100.2" y1="359.8" x2="105" y2="359.8"/>
		<line class="st13" x1="100.2" y1="360.9" x2="105" y2="360.9"/>
		<line class="st13" x1="100.2" y1="362" x2="105" y2="362"/>
		<line class="st13" x1="100.2" y1="358.7" x2="105" y2="358.7"/>
		<rect x="29.6" y="381.7" class="st14" width="75.4" height="11.7"/>
		<line class="st12" x1="29.6" y1="381.7" x2="104.9" y2="381.7"/>
		<g>
			<path d="M64.3,385.3h0.5l1.8,4.3h-0.6l-0.4-1.1h-2.2l-0.4,1.1h-0.6L64.3,385.3z M64.6,386L64.6,386l-0.9,2.1h1.8L64.6,386z"/>
			<path d="M67.2,387.5c0-0.3,0-0.5,0-0.7h0.5c0,0.2,0,0.3,0,0.5h0c0.1-0.3,0.5-0.5,1-0.5c0.1,0,0.1,0,0.2,0l0,0.5
				c-0.1,0-0.2,0-0.3,0c-0.6,0-0.8,0.4-0.8,1.1v1.4h-0.5V387.5z"/>
			<path d="M70.9,387.2H70v1.4c0,0.4,0,0.7,0.4,0.7c0.1,0,0.3,0,0.4-0.1l0,0.4c-0.2,0.1-0.4,0.1-0.6,0.1c-0.7,0-0.8-0.4-0.8-1v-1.6
				h-0.6v-0.4h0.6V386H70v0.8h0.8V387.2z"/>
			<path d="M74.6,389.7h-0.5l-0.8-2.2h0l-0.7,2.2H72l-0.9-2.9h0.5l0.7,2.2h0l0.7-2.2h0.5l0.8,2.2h0l0.7-2.2h0.5L74.6,389.7z"/>
			<path d="M77.4,386.7c0.9,0,1.5,0.6,1.5,1.5s-0.7,1.5-1.5,1.5s-1.5-0.6-1.5-1.5S76.5,386.7,77.4,386.7z M77.4,389.3
				c0.6,0,1-0.5,1-1.1c0-0.6-0.4-1.1-1-1.1s-1,0.5-1,1.1C76.4,388.8,76.8,389.3,77.4,389.3z"/>
			<path d="M79.7,387.5c0-0.3,0-0.5,0-0.7h0.5c0,0.2,0,0.3,0,0.5h0c0.1-0.3,0.5-0.5,1-0.5c0.1,0,0.1,0,0.2,0l0,0.5
				c-0.1,0-0.2,0-0.3,0c-0.6,0-0.8,0.4-0.8,1.1v1.4h-0.5V387.5z"/>
			<path d="M81.8,385h0.5v3l1.3-1.3h0.7l-1.4,1.3l1.5,1.6h-0.7l-1.4-1.5v1.5h-0.5V385z"/>
		</g>
		<line class="st12" x1="41.4" y1="381.7" x2="41.4" y2="393.4"/>
		<line class="st12" x1="53.3" y1="381.7" x2="53.3" y2="393.4"/>
		<polygon points="59.2,387.6 56.8,389.6 56.8,385.6 		"/>
		<path d="M37.9,387.6c0,0-0.9,1.6-2.3,1.6c-1.4,0-2.3-1.6-2.3-1.6s0.9-1.6,2.3-1.6C36.9,385.9,37.9,387.6,37.9,387.6z M36.7,387.6
			c0-0.6-0.5-1.1-1.1-1.1s-1.1,0.5-1.1,1.1c0,0.6,0.5,1.1,1.1,1.1C36.1,388.7,36.7,388.2,36.7,387.6z M35.5,387.1
			c-0.3,0-0.5,0.2-0.5,0.5c0,0.3,0.2,0.5,0.5,0.5c0.3,0,0.5-0.2,0.5-0.5C36,387.3,35.8,387.1,35.5,387.1z"/>
		<polygon points="102,381.7 104.9,381.7 104.9,384.7 		"/>
		<g>
			<path d="M32.8,358.7h0.5v3.9h2v0.5h-2.5V358.7z"/>
			<path d="M35.7,360.6c0.3-0.3,0.7-0.4,1.1-0.4c0.8,0,1.2,0.4,1.2,1.2v1.2c0,0.2,0,0.3,0,0.5h-0.5c0-0.1,0-0.3,0-0.4h0
				c-0.2,0.3-0.5,0.5-0.9,0.5c-0.6,0-1.1-0.3-1.1-0.9c0-1,1.1-1,1.8-1h0.2v-0.1c0-0.4-0.3-0.6-0.7-0.6c-0.3,0-0.6,0.1-0.9,0.3
				L35.7,360.6z M37.1,361.7c-0.6,0-1,0.2-1,0.6c0,0.4,0.3,0.5,0.6,0.5c0.6,0,0.8-0.4,0.8-0.9v-0.2H37.1z"/>
			<path d="M40,363.7c-0.2,0.5-0.4,0.8-1,0.8c-0.1,0-0.3,0-0.4-0.1l0.1-0.4c0.1,0,0.2,0,0.3,0c0.3,0,0.4-0.2,0.5-0.5l0.2-0.5
				l-1.2-2.9h0.6l0.9,2.3h0l0.9-2.3h0.5L40,363.7z"/>
			<path d="M44.4,362.6c-0.3,0.4-0.7,0.6-1.3,0.6c-0.9,0-1.5-0.7-1.5-1.5c0-0.9,0.6-1.5,1.5-1.5c0.8,0,1.4,0.6,1.4,1.5v0.2h-2.3
				c0,0.5,0.4,0.9,0.9,0.9c0.4,0,0.7-0.1,0.9-0.4L44.4,362.6z M44,361.4c0-0.5-0.3-0.8-0.9-0.8c-0.5,0-0.9,0.3-0.9,0.8H44z"/>
			<path d="M45.3,360.9c0-0.3,0-0.5,0-0.7h0.5c0,0.2,0,0.3,0,0.5h0c0.1-0.3,0.5-0.5,1-0.5c0.1,0,0.1,0,0.2,0l0,0.5
				c-0.1,0-0.2,0-0.3,0c-0.6,0-0.8,0.4-0.8,1.1v1.4h-0.5V360.9z"/>
			<path d="M47.5,362.3c0.2,0.2,0.4,0.4,0.7,0.4c0.3,0,0.6-0.1,0.6-0.4c0-0.3-0.3-0.4-0.6-0.5c-0.5-0.1-1-0.2-1-0.8
				c0-0.6,0.5-0.8,1.1-0.8c0.4,0,0.8,0.2,1,0.5l-0.4,0.3c-0.1-0.2-0.3-0.3-0.6-0.3c-0.3,0-0.6,0.1-0.6,0.4c0,0.2,0.3,0.3,0.7,0.4
				c0.5,0.1,0.9,0.3,0.9,0.9c0,0.7-0.6,0.9-1.1,0.9c-0.5,0-0.8-0.1-1.1-0.5L47.5,362.3z"/>
		</g>
		<g>
			<path d="M65.8,373.8h-1.4v3.9h-0.5v-3.9h-1.4v-0.5h3.4V373.8z"/>
			<path d="M68.9,377.2c-0.3,0.4-0.7,0.6-1.3,0.6c-0.9,0-1.5-0.7-1.5-1.5c0-0.9,0.6-1.5,1.5-1.5c0.8,0,1.4,0.6,1.4,1.5v0.2h-2.3
				c0,0.5,0.4,0.9,0.9,0.9c0.4,0,0.7-0.1,0.9-0.4L68.9,377.2z M68.5,376c0-0.5-0.3-0.8-0.9-0.8c-0.5,0-0.9,0.3-0.9,0.8H68.5z"/>
			<path d="M69.8,375.5c0-0.3,0-0.5,0-0.7h0.5c0,0.2,0,0.3,0,0.5h0c0.1-0.3,0.5-0.5,1-0.5c0.6,0,0.8,0.3,0.9,0.5
				c0.2-0.3,0.5-0.5,0.9-0.5c0.8,0,1.1,0.5,1.1,1.2v1.7h-0.5V376c0-0.4-0.1-0.8-0.7-0.8c-0.4,0-0.7,0.3-0.7,0.8v1.7h-0.5v-1.6
				c0-0.6-0.2-0.9-0.6-0.9c-0.6,0-0.9,0.4-0.9,1.1v1.4h-0.5V375.5z"/>
			<path d="M75,374.8h0.5v0.4h0c0.3-0.3,0.6-0.5,1-0.5c0.9,0,1.5,0.6,1.5,1.5c0,0.9-0.6,1.5-1.4,1.5c-0.5,0-0.9-0.3-1.1-0.6h0v1.9
				H75V374.8z M76.5,377.3c0.6,0,1-0.5,1-1.1c0-0.6-0.4-1.1-1-1.1c-0.6,0-1,0.5-1,1.1C75.4,376.8,75.8,377.3,76.5,377.3z"/>
			<path d="M78.8,373h0.5v4.6h-0.5V373z"/>
			<path d="M80.2,375.2c0.3-0.3,0.7-0.4,1.1-0.4c0.8,0,1.2,0.4,1.2,1.2v1.2c0,0.2,0,0.3,0,0.5h-0.5c0-0.1,0-0.3,0-0.4h0
				c-0.2,0.3-0.5,0.5-0.9,0.5c-0.6,0-1.1-0.3-1.1-0.9c0-1,1.1-1,1.8-1H82v-0.1c0-0.4-0.3-0.6-0.7-0.6c-0.3,0-0.6,0.1-0.9,0.3
				L80.2,375.2z M81.6,376.3c-0.6,0-1,0.2-1,0.6c0,0.4,0.3,0.5,0.6,0.5c0.6,0,0.8-0.4,0.8-0.9v-0.2H81.6z"/>
			<path d="M85,375.2h-0.8v1.4c0,0.4,0,0.7,0.4,0.7c0.1,0,0.3,0,0.4-0.1l0,0.4c-0.2,0.1-0.4,0.1-0.6,0.1c-0.7,0-0.8-0.4-0.8-1v-1.6
				H83v-0.4h0.6V374h0.5v0.8H85V375.2z"/>
			<path d="M88.1,377.2c-0.3,0.4-0.7,0.6-1.3,0.6c-0.9,0-1.5-0.7-1.5-1.5c0-0.9,0.6-1.5,1.5-1.5c0.8,0,1.4,0.6,1.4,1.5v0.2h-2.3
				c0,0.5,0.4,0.9,0.9,0.9c0.4,0,0.7-0.1,0.9-0.4L88.1,377.2z M87.7,376c0-0.5-0.3-0.8-0.9-0.8c-0.5,0-0.9,0.3-0.9,0.8H87.7z"/>
		</g>
		<path d="M48.7,375.3h-0.2v-0.4c0-0.6-0.5-1-1.1-1c-0.7,0-1.1,0.5-1.1,1v0.4h-0.2c-0.2,0-0.4,0.2-0.4,0.4v1.8
			c0,0.2,0.2,0.4,0.4,0.4h2.6c0.2,0,0.4-0.2,0.4-0.4v-1.8C49.1,375.5,48.9,375.3,48.7,375.3z M46.8,374.9c0-0.2,0.3-0.5,0.6-0.5
			c0.3,0,0.6,0.2,0.6,0.5v0.4h-1.2V374.9z M47.1,377v-0.8h0.6v0.8H47.1z"/>
		<path d="M37.9,375.9c0,0-0.9,1.6-2.3,1.6c-1.4,0-2.3-1.6-2.3-1.6s0.9-1.6,2.3-1.6C36.9,374.3,37.9,375.9,37.9,375.9z M36.7,375.9
			c0-0.6-0.5-1.1-1.1-1.1s-1.1,0.5-1.1,1.1s0.5,1.1,1.1,1.1C36.1,377.1,36.7,376.5,36.7,375.9z M35.5,375.4c-0.3,0-0.5,0.2-0.5,0.5
			c0,0.3,0.2,0.5,0.5,0.5c0.3,0,0.5-0.2,0.5-0.5C36,375.6,35.8,375.4,35.5,375.4z"/>
		<polyline class="st12" points="104.9,381.7 104.9,393.4 29.6,393.4 29.6,381.7 		"/>
	</g>
	<g>
		<circle class="st15" cx="173.9" cy="377.8" r="20.6"/>
		<circle class="st16" cx="198.6" cy="371.7" r="20.6"/>
		<polygon points="213.1,376.6 213.1,383.9 215,381.7 218.2,381.7 		"/>
		<g>
			<rect x="153.3" y="357.2" class="st13" width="41.3" height="41.3"/>
			<g>
				<g>
					<rect x="152.5" y="356.4" class="st3" width="1.6" height="1.6"/>
					<path d="M153.6,356.8v0.8h-0.8v-0.8H153.6 M154.4,356h-2.4v2.4h2.4V356L154.4,356z"/>
				</g>
				<g>
					<rect x="193.8" y="356.4" class="st3" width="1.6" height="1.6"/>
					<path d="M194.9,356.8v0.8h-0.8v-0.8H194.9 M195.7,356h-2.4v2.4h2.4V356L195.7,356z"/>
				</g>
				<g>
					<rect x="193.8" y="397.7" class="st3" width="1.6" height="1.6"/>
					<path d="M194.9,398.1v0.8h-0.8v-0.8H194.9 M195.7,397.3h-2.4v2.4h2.4V397.3L195.7,397.3z"/>
				</g>
				<g>
					<rect x="152.5" y="397.7" class="st3" width="1.6" height="1.6"/>
					<path d="M153.6,398.1v0.8h-0.8v-0.8H153.6 M154.4,397.3h-2.4v2.4h2.4V397.3L154.4,397.3z"/>
				</g>
				<g>
					<rect x="152.5" y="377" class="st3" width="1.6" height="1.6"/>
					<path d="M153.6,377.4v0.8h-0.8v-0.8H153.6 M154.4,376.6h-2.4v2.4h2.4V376.6L154.4,376.6z"/>
				</g>
				<g>
					<rect x="193.8" y="377" class="st3" width="1.6" height="1.6"/>
					<path d="M194.9,377.4v0.8h-0.8v-0.8H194.9 M195.7,376.6h-2.4v2.4h2.4V376.6L195.7,376.6z"/>
				</g>
				<g>
					<rect x="173.1" y="397.7" class="st3" width="1.6" height="1.6"/>
					<path d="M174.3,398.1v0.8h-0.8v-0.8H174.3 M175.1,397.3h-2.4v2.4h2.4V397.3L175.1,397.3z"/>
				</g>
				<g>
					<rect x="173.1" y="356.4" class="st3" width="1.6" height="1.6"/>
					<path d="M174.3,356.8v0.8h-0.8v-0.8H174.3 M175.1,356h-2.4v2.4h2.4V356L175.1,356z"/>
				</g>
			</g>
		</g>
	</g>
	<g>
		<g>
			<path class="st15" d="M289.6,372.4c-1-2.8-3.9-4.1-6.6-4.1c-2.6,0-4.9,1.2-4.9,3.9c0,5,15.1,4.1,15.1,14.9
				c0,7.3-5.7,12.5-14,12.5c-6.7,0-12.1-3.5-14.2-7.5l6-4.9c1.7,2.8,5.4,4.8,9.2,4.8c2.7,0,4.6-1.2,4.6-3.8c0-5.9-15-4.2-15-15.3
				c0-6.6,5.2-11.5,13.6-11.5c4.9,0,10.4,2,12.9,5.9L289.6,372.4z"/>
			<path class="st15" d="M314,399c-1.3,0.3-3,0.7-4.7,0.7c-6,0-9.5-3.7-9.5-9.6c0-1.1,0.1-2.4,0.4-3.6l3.7-17.4h-3.9l1.6-7.3h3.9
				l2.3-10.8h8.5l-2.3,10.8h7.1l-1.6,7.3h-7.1l-3.9,18.4c-0.1,0.5-0.1,0.9-0.1,1.2c0,1.9,1.2,3,3,3c1.3,0,2.1-0.3,2.8-0.7L314,399z"
				/>
		</g>
		<rect x="265.1" y="351.1" class="st13" width="56.1" height="48.6"/>
		<g>
			<rect x="264.3" y="350.3" class="st3" width="1.6" height="1.6"/>
			<path d="M265.5,350.7v0.8h-0.8v-0.8H265.5 M266.3,349.9h-2.4v2.4h2.4V349.9L266.3,349.9z"/>
		</g>
		<g>
			<rect x="292.4" y="350.3" class="st3" width="1.6" height="1.6"/>
			<path d="M293.5,350.7v0.8h-0.8v-0.8H293.5 M294.3,349.9H292v2.4h2.4V349.9L294.3,349.9z"/>
		</g>
		<g>
			<rect x="292.4" y="398.9" class="st3" width="1.6" height="1.6"/>
			<path d="M293.5,399.3v0.8h-0.8v-0.8H293.5 M294.3,398.5H292v2.4h2.4V398.5L294.3,398.5z"/>
		</g>
		<g>
			<rect x="264.3" y="398.9" class="st3" width="1.6" height="1.6"/>
			<path d="M265.5,399.3v0.8h-0.8v-0.8H265.5 M266.3,398.5h-2.4v2.4h2.4V398.5L266.3,398.5z"/>
		</g>
		<g>
			<rect x="320.5" y="398.8" class="st3" width="1.6" height="1.6"/>
			<path d="M321.6,399.2v0.8h-0.8v-0.8H321.6 M322.4,398.4h-2.4v2.4h2.4V398.4L322.4,398.4z"/>
		</g>
		<g>
			<rect x="320.5" y="350.3" class="st3" width="1.6" height="1.6"/>
			<path d="M321.6,350.7v0.8h-0.8v-0.8H321.6 M322.4,349.9h-2.4v2.4h2.4V349.9L322.4,349.9z"/>
		</g>
		<g>
			<rect x="320.5" y="374.6" class="st3" width="1.6" height="1.6"/>
			<path d="M321.6,375v0.8h-0.8V375H321.6 M322.4,374.2h-2.4v2.4h2.4V374.2L322.4,374.2z"/>
		</g>
		<g>
			<rect x="264.3" y="374.6" class="st3" width="1.6" height="1.6"/>
			<path d="M265.5,375v0.8h-0.8V375H265.5 M266.3,374.2h-2.4v2.4h2.4V374.2L266.3,374.2z"/>
		</g>
		<g>
			<rect x="282.9" y="360.6" width="1.4" height="1.4"/>
		</g>
		<g>
			<rect x="304.7" y="361.1" width="1.4" height="1.4"/>
		</g>
		<g>
			<rect x="313.5" y="361.1" width="1.4" height="1.4"/>
		</g>
		<g>
			<rect x="315.7" y="350.3" width="1.4" height="1.4"/>
		</g>
		<g>
			<rect x="307.1" y="350.3" width="1.4" height="1.4"/>
		</g>
		<g>
			<rect x="320.5" y="361.1" width="1.4" height="1.4"/>
		</g>
		<g>
			<rect x="318.9" y="368.3" width="1.4" height="1.4"/>
		</g>
		<g>
			<rect x="311.8" y="368.3" width="1.4" height="1.4"/>
		</g>
		<g>
			<rect x="307.8" y="387.1" width="1.4" height="1.4"/>
		</g>
		<g>
			<rect x="313.6" y="390.2" width="1.4" height="1.4"/>
		</g>
		<g>
			<rect x="313.3" y="398.2" width="1.4" height="1.4"/>
		</g>
		<g>
			<rect x="299.6" y="385.4" width="1.4" height="1.4"/>
		</g>
		<g>
			<rect x="300.9" y="361.1" width="1.4" height="1.4"/>
		</g>
		<g>
			<rect x="299.4" y="368.3" width="1.4" height="1.4"/>
		</g>
		<g>
			<rect x="303.3" y="368.3" width="1.4" height="1.4"/>
		</g>
		<g>
			<rect x="282.4" y="367.4" width="1.4" height="1.4"/>
		</g>
		<g>
			<rect x="295.6" y="366.5" width="1.4" height="1.4"/>
		</g>
		<g>
			<rect x="289.1" y="371.6" width="1.4" height="1.4"/>
		</g>
		<g>
			<rect x="277.5" y="371.6" width="1.4" height="1.4"/>
		</g>
		<g>
			<rect x="269.1" y="371.6" width="1.4" height="1.4"/>
		</g>
		<g>
			<rect x="284.2" y="387.1" width="1.4" height="1.4"/>
		</g>
		<g>
			<rect x="279.2" y="391.4" width="1.4" height="1.4"/>
		</g>
		<g>
			<rect x="270.5" y="386.6" width="1.4" height="1.4"/>
		</g>
		<g>
			<rect x="264.4" y="391.4" width="1.4" height="1.4"/>
		</g>
		<g>
			<rect x="278.4" y="398.9" width="1.4" height="1.4"/>
		</g>
		<g>
			<rect x="292.5" y="387.1" width="1.4" height="1.4"/>
		</g>
	</g>
	<g>
		<g>
			<path class="st8" d="M159.3,447.6c-1.1,0-2.1-0.1-3-1l1.2-1.2c0.6,0.6,1.3,0.7,1.9,0.7c0.6,0,1.3-0.2,1.3-0.7
				c0-0.4-0.2-0.6-0.8-0.7l-1.1-0.1c-1.3-0.1-2.1-0.7-2.1-2c0-1.5,1.3-2.3,2.7-2.3c1.1,0,2,0.2,2.7,0.8l-1.1,1.1
				c-0.4-0.4-1-0.5-1.6-0.5c-0.7,0-1,0.3-1,0.7c0,0.3,0.1,0.6,0.7,0.6l1.1,0.1c1.4,0.1,2.1,0.9,2.1,2.1
				C162.3,446.9,161,447.6,159.3,447.6z"/>
			<path class="st8" d="M165.4,447.6c-1.4,0-2.1-1-2.1-2V442h-0.7v-1.3h0.7v-2.1h1.8v2.1h1.3v1.3h-1.3v3.4c0,0.4,0.2,0.6,0.6,0.6
				h0.6v1.5H165.4z"/>
			<path class="st8" d="M167.2,439.3v-1.4h1.8v1.4H167.2z M167.2,447.6v-7.1h1.8v7.1H167.2z"/>
			<path class="st8" d="M173,447.6c-1.4,0-3.2-0.8-3.2-3.6c0-2.9,1.8-3.6,3.2-3.6c1,0,1.7,0.3,2.3,1l-1.2,1.2
				c-0.4-0.4-0.7-0.6-1.1-0.6c-0.4,0-0.7,0.1-1,0.5c-0.3,0.3-0.4,0.8-0.4,1.6s0.1,1.2,0.4,1.6c0.3,0.3,0.6,0.5,1,0.5
				c0.5,0,0.8-0.2,1.1-0.6l1.2,1.2C174.7,447.3,174,447.6,173,447.6z"/>
			<path class="st8" d="M180.2,447.6l-1.7-3l-0.7,0.8v2.1H176v-9.7h1.8v5.5l2.4-2.9h2.1l-2.5,2.9l2.7,4.2H180.2z"/>
			<path class="st8" d="M183.9,444.6c0,0.9,0.6,1.6,1.6,1.6c0.8,0,1.2-0.2,1.6-0.7l1.1,1c-0.7,0.7-1.4,1.1-2.7,1.1
				c-1.7,0-3.3-0.8-3.3-3.6c0-2.3,1.3-3.6,3.1-3.6c2,0,3.1,1.4,3.1,3.4v0.8H183.9z M186.4,442.6c-0.2-0.4-0.6-0.7-1.2-0.7
				c-0.6,0-1,0.3-1.2,0.7c-0.1,0.3-0.1,0.5-0.2,0.8h2.7C186.6,443,186.6,442.9,186.4,442.6z"/>
			<path class="st8" d="M193.1,442.4c-0.3-0.3-0.5-0.4-0.9-0.4c-0.5,0-1.1,0.4-1.1,1.3v4.3h-1.8v-7.1h1.7v0.7c0.3-0.4,1-0.8,1.8-0.8
				c0.7,0,1.2,0.2,1.7,0.7L193.1,442.4z"/>
		</g>
		<g>
			<path class="st8" d="M202.4,440.4c-0.9,0-1.5,0.3-2.1,0.9c-0.5-0.6-1.1-0.9-1.9-0.9c-0.7,0-1.3,0.3-1.8,0.7v-0.7h-1.7v7.1h1.8
				v-4.3c0-1,0.6-1.3,1.2-1.3c0.6,0,1.2,0.3,1.2,1.3v4.3h1.8v-4.3c0-0.9,0.6-1.3,1.2-1.3c0.6,0,1.2,0.3,1.2,1.3v4.3h1.8V443
				c0-0.8-0.2-1.4-0.8-2C203.7,440.6,203.1,440.4,202.4,440.4z"/>
			<path class="st8" d="M210.1,444.8c0,1-0.6,1.3-1.2,1.3c-0.6,0-1.2-0.3-1.2-1.3v-4.3h-1.8v4.5c0,0.8,0.1,1.4,0.7,2
				c0.4,0.4,1,0.6,1.7,0.6c0.7,0,1.3-0.2,1.8-0.7v0.7h1.7v-7.1h-1.8V444.8z"/>
			<path class="st8" d="M214.7,445.4v-7.6H213v7.7c0,1,0.6,2,2.1,2h1v-1.5h-0.7C214.9,446.1,214.7,445.9,214.7,445.4z"/>
			<path class="st8" d="M222.5,443.8c0-1.9-1.1-3.4-3.1-3.4c-1.8,0-3.1,1.3-3.1,3.6c0,2.9,1.6,3.6,3.3,3.6c1.3,0,2-0.4,2.7-1.1
				l-1.1-1c-0.4,0.5-0.8,0.7-1.6,0.7c-1,0-1.6-0.7-1.6-1.6h4.4V443.8z M218.1,443.4c0-0.3,0.1-0.5,0.2-0.8c0.2-0.4,0.6-0.7,1.2-0.7
				s1,0.3,1.2,0.7c0.1,0.3,0.2,0.5,0.2,0.8H218.1z"/>
		</g>
		<path class="st17" d="M148.6,450.3c-0.1,0.1-0.3,0-0.5,0.1c-0.2,0-0.4,0-0.5-0.1c-0.1,0-0.1-0.1-0.1-0.2c0-0.1,0-0.1,0-0.2
			c0-0.1,0-0.2,0-0.2c0-0.1-0.2,0-0.3-0.1c-0.1,0-0.1-0.2-0.1-0.3c0,0,0-0.1,0-0.1c0-0.2,0-0.4,0.1-0.6c0-0.2,0.1-0.4,0.1-0.6
			c0-0.3,0.1-0.6,0-0.9c0-0.1,0-0.3,0-0.4c0-0.1,0.1-0.2,0.1-0.3c0,0,0-0.1,0-0.1c0,0,0-0.1,0-0.1c0-0.1,0-0.2,0-0.3
			c0-0.3,0-0.6,0-0.9c0-0.1,0-0.2,0-0.2c-0.3,0-0.5,0-0.8,0.1c-0.7,0.1-1.5,0.1-2.2,0c-0.1,0-0.1,0-0.2,0c-0.5-0.1-0.9-0.3-1.2-0.6
			c-0.1,0-0.1-0.1-0.2-0.1c-0.1,0-0.1-0.1-0.2-0.1c-0.3-0.1-0.6,0-0.7,0.2c0,0.1-0.1,0.2-0.1,0.2c0,0.1-0.1,0.2-0.1,0.2
			c-0.2,0.4-0.4,0.8-0.5,1.2c-0.1,0.2-0.2,0.5-0.3,0.8c-0.2,0.6,0,1.3,0.1,1.8c0,0,0,0.1,0.1,0.1c0,0.1,0.1,0.3,0.2,0.4
			c0.1,0,0.1,0.1,0.2,0.1c0.1,0.1,0.1,0.2,0.2,0.3c0,0,0.1,0.1,0.1,0.1c0.1,0.1,0.1,0.2,0,0.3c-0.1,0.1-0.2,0.1-0.4,0.1
			c-0.1,0,0,0.1-0.1,0.1c0,0-0.1,0.1-0.2,0.1c-0.2,0.1-0.5,0-0.6,0c-0.1,0-0.2-0.1-0.2-0.1c0-0.1,0.1-0.3,0-0.3c0,0-0.1,0-0.2-0.1
			c-0.1,0-0.2-0.1-0.2-0.2c-0.1-0.3,0-0.7-0.1-1c0-0.1,0-0.2,0-0.3c0-0.2-0.1-0.4-0.1-0.6c0-0.1,0-0.2-0.1-0.3
			c0-0.1-0.1-0.3-0.1-0.4c0-0.2,0-0.3,0-0.4c0,0,0.1-0.1,0.1-0.1c0-0.1,0-0.2,0-0.2c0,0-0.1,0-0.1,0c-0.1-0.4-0.1-0.9-0.2-1.3
			c0-0.1,0-0.3,0-0.5c0-0.3,0-0.6,0-0.9c0-0.1,0-0.3-0.1-0.4c-0.1-0.4-0.2-0.9-0.1-1.3c0.1-0.3,0.1-0.5,0.3-0.7
			c0.1-0.1,0.2-0.3,0.3-0.4c0.1-0.1,0.3-0.2,0.4-0.3c0.1-0.1,0.2-0.1,0.3-0.2c0.2-0.1,0.5-0.2,0.8-0.2c0.3,0,0.7,0,1,0
			c0.3,0.1,0.6,0.1,0.9,0.2c0.3,0.1,0.6,0.1,0.8,0.2c0,0,0.1,0,0.1,0c0.1,0,0.2,0,0.3,0.1c0.2,0.1,0.6,0.1,0.9,0.1
			c0.3,0,0.6,0,0.9-0.1c0,0,0.1,0,0.1,0c0,0,0.1,0,0.1,0c0,0,0.1,0,0.1-0.1c0.2-0.1,0.3-0.2,0.4-0.3c0.1-0.1,0.2-0.1,0.4-0.2
			c0.1,0,0.1-0.1,0.2-0.1c0.1,0,0.3-0.1,0.4-0.2c0.2-0.1,0.3-0.3,0.4-0.4c0.1-0.1,0.3-0.3,0.4-0.4c0.3-0.2,0.6-0.5,0.9-0.7
			c0.1-0.1,0.3-0.2,0.5-0.3c0.3-0.2,0.7-0.4,1.2-0.5c0.2,0,0.4,0,0.6,0c0.1,0,0.1,0,0.2,0c0.1,0,0.1-0.1,0.1-0.2
			c0.1-0.1,0.1-0.2,0.2-0.4c0-0.1,0-0.2,0.1-0.2c0.1,0,0.1,0.3,0.1,0.4c0,0.1,0,0.3,0,0.4c0,0.1,0.1,0.1,0.2,0.1
			c0.1,0,0.1,0,0.1-0.1c0.1,0,0.1,0,0.1-0.1c0.1-0.1,0.2-0.2,0.3-0.2c0.1-0.1,0.2-0.2,0.3-0.2c0.2,0,0,0.3,0,0.4
			c-0.1,0.2-0.2,0.4-0.3,0.6c0,0.1-0.2,0.2-0.2,0.3c0,0.1,0.1,0.1,0.1,0.2c0,0,0,0.1,0,0.1c0.1,0.2,0.1,0.4,0.2,0.5
			c0,0.2,0.1,0.3,0.1,0.5c0.1,0.1,0.1,0.3,0.2,0.4c0,0,0,0.1,0,0.1c0.1,0.3,0.2,0.7,0.4,1c0.1,0.1,0.1,0.3,0.1,0.5
			c0,0.2-0.1,0.3-0.2,0.4c0,0.1-0.1,0.2-0.2,0.2c-0.1,0-0.1,0-0.2,0c-0.1,0-0.1,0.1-0.2,0.1c-0.2,0-0.3-0.1-0.4-0.3c0,0,0-0.1,0-0.2
			c0-0.2-0.2-0.3-0.3-0.5c-0.1-0.1-0.2-0.2-0.3-0.2c-0.2-0.1-0.4-0.1-0.5-0.2c-0.1,0-0.2-0.1-0.2-0.1c-0.1,0-0.2,0.2-0.3,0.3
			c-0.5,0.6-0.9,1.3-1.4,1.9c-0.3,0.4-0.6,0.8-0.9,1.3c-0.1,0.1-0.1,0.3-0.1,0.4c0,0.1-0.1,0.3-0.1,0.4c-0.2,0.5-0.2,1.1-0.4,1.7
			c0,0.1,0,0.1,0,0.2c-0.1,0.3-0.2,0.6-0.2,0.9c-0.1,0.2-0.1,0.5-0.1,0.8c0,0.3,0,0.6,0.1,0.8c0.1,0.1,0.2,0.1,0.3,0.2
			c0,0.1,0.1,0.2,0.1,0.3c0,0.1,0.1,0.2,0.1,0.3c0,0.1-0.1,0.1-0.1,0.1c-0.1,0-0.1,0-0.2,0C148.7,450.1,148.7,450.2,148.6,450.3z"/>
	</g>
	<circle class="st18" cx="179.9" cy="157.8" r="36"/>
</g>
<g id="Tick_mark">
	<g>
		<rect x="179.2" y="110.1" width="1.5" height="3.8"/>
		<path class="st3" d="M180.2,110.6v2.8h-0.5v-2.8H180.2 M181.2,109.6h-1h-0.5h-1v1v2.8v1h1h0.5h1v-1v-2.8V109.6L181.2,109.6z"/>
	</g>
</g>
</svg>
